<svg preserveAspectRatio="none" width="100%" height="100%" overflow="visible" style="display: block;" viewBox="0 0 200 279" fill="none" xmlns="http://www.w3.org/2000/svg">
<g id="Frame">
<path id="Vector" d="M176.627 206.185C163.26 247.95 117.749 270.695 74.9738 256.992C32.1988 243.286 8.35861 198.319 21.725 156.555C35.0915 114.791 80.6031 92.0446 123.378 105.75C166.153 119.455 189.993 164.421 176.627 206.185Z" fill="var(--fill-0, #F5002E)"/>
<path id="Vector_2" d="M140.168 101.008L140.234 102.945L141.837 103.89L141.206 104.726L142.433 106.811L143.958 106.925L143.389 108.12L145.958 109.193L146.191 108.348L147.37 108.242C147.786 106.749 148.928 105.544 148.469 103.937C149.511 103.747 149.821 102.698 149.934 102.039C150.202 100.477 151.292 99.0883 151.268 97.6437C151.242 95.9568 152.067 94.6014 152.409 93.1006C152.821 91.299 153.264 89.4426 153.836 87.6424C154.393 85.8851 155.137 84.0242 155.013 82.0766C156.587 78.8392 156.658 75.2349 157.5 71.824C158.156 69.1662 158.994 66.4709 159.092 63.6613C159.125 62.6842 160.038 61.6729 158.611 60.7851C159.851 59.9355 160.52 59.007 160.425 57.5637C160.389 56.521 160.522 55.471 160.819 54.4598C161.523 51.8326 161.686 49.1465 162.101 46.4879C162.483 44.0483 162.558 41.5668 162.967 39.1729C163.517 35.9454 162.952 32.8722 163.033 29.7279C163.048 29.174 162.609 28.6458 162.51 28.0736C162.403 27.454 162.667 26.6101 162.371 26.2025C161.987 25.6743 162.303 25.2301 162.203 24.7804C162.054 24.1156 161.85 23.4677 161.633 22.6802C161.135 22.4272 160.905 21.447 159.941 21.5357C159.699 21.5575 159.218 21.1063 159.223 20.8619C159.26 19.0134 157.825 18.7138 156.6 18.0252C154.259 17.9252 152.666 19.2808 151.736 21.7024C151.604 22.0187 151.511 22.3508 151.46 22.6896C151.313 24.0009 151.399 25.3776 151.014 26.6103C150.59 27.9662 150.67 29.2434 150.683 30.5645C150.696 31.8331 151.084 33.2957 150.601 34.3208C150.063 35.4605 151.02 36.7387 149.902 37.6225C150.779 38.4044 149.538 39.3648 149.976 40.1839C149.27 41.1642 149.704 42.2668 149.525 43.2921C149.359 44.2413 149.278 45.2122 149.087 46.1266C148.492 49.1292 148.095 52.1632 147.9 55.2054C146.871 56.6068 147.95 58.3183 147.051 59.8059C146.279 61.0827 146.482 62.683 146.239 64.1071C145.964 65.7235 145.769 67.411 145.575 69.066C145.393 70.6111 145.049 72.1452 144.834 73.7012C144.517 75.9948 143.672 78.2278 143.588 80.5796C142.534 81.66 143.525 83.1256 142.735 84.3736C142.073 85.421 142.003 86.8898 141.864 88.0999C141.525 91.0533 140.28 93.7479 139.798 96.6346C139.684 97.3185 139.56 98.0008 139.422 98.7927C140.056 98.8395 140.532 98.8745 141.283 98.9299L140.168 101.008Z" fill="var(--fill-0, black)"/>
<path id="Vector_3" d="M109.312 57.6955C109.448 57.5321 109.565 57.392 109.682 57.2523L107.976 56.2474C108.433 56.0307 108.728 55.8925 109.197 55.6695C109.077 54.8726 109.212 53.7664 108.76 53.2355C108.028 52.3741 109.012 51.6796 108.718 50.9017C108.452 50.1959 108.735 49.1103 108.33 48.6158C107.669 47.81 107.993 46.9089 107.767 46.0971C107.496 45.2907 107.181 44.5042 106.823 43.741L107.267 41.9984L105.5 41.1665C106.342 40.809 106.619 40.6911 107.071 40.4989C105.627 38.1006 106.295 35.0108 105.018 32.5955C104.746 32.5555 104.511 32.5204 103.889 32.4285C104.493 32.1504 104.75 32.0325 105.048 31.8951L104.476 29.9061C104.072 29.8949 103.665 29.8834 103.069 29.8667L103.497 29.1626L102.927 28.0799L103.977 27.4802C103.55 26.9033 103.122 26.3264 102.617 25.6426C102.376 25.6349 101.969 25.6241 101.441 25.6089L102.284 23.597C100.943 22.7504 100.27 20.8376 98.489 20.3772L97.8798 21.0443C97.3692 20.5627 97.4979 20.3091 98.5885 19.6512C98.6025 19.4723 98.6046 19.2933 98.5948 19.1153C98.5871 19.0424 98.4985 18.9836 98.3235 18.7641C97.961 18.9685 97.5567 19.1961 97.1106 19.4469L95.515 18.9357L96.1333 20.5382C95.5135 20.4266 95.0525 20.3439 94.2731 20.2036L95.3008 22.3633L95.8475 21.8228L96.6323 23.2919L94.8983 23.447L94.135 25.2431L95.8235 29.0895C95.6217 29.7147 95.981 32.0113 96.4644 33.0236L95.9215 33.7376L96.791 35.4742L97.319 34.9173C97.4075 35.0314 97.6063 35.1798 97.5823 35.2744C97.3119 36.3489 96.5952 37.4018 97.6337 38.4533C97.8258 38.6478 97.5102 39.4189 97.4213 39.9226C97.0142 42.2271 97.3869 44.2754 98.825 45.9771C98.7298 46.4135 98.5267 46.9009 98.5506 47.3632C98.5788 47.9076 99.0733 48.7359 98.9 48.9104C98.0042 49.8144 99.1438 50.1425 99.1717 50.7541C99.1698 51.367 99.296 51.9662 99.5411 52.5078C100.034 53.5359 100.173 54.7921 100.355 55.9764C100.962 59.949 101.902 63.8389 103.165 67.5992C104.146 70.5189 104.975 73.509 106.246 76.2861C107.103 78.1573 107.907 80.2027 109.248 81.6119C110.459 82.8865 111.545 84.4269 113.241 85.3534C113.459 85.1825 113.723 84.9757 114.026 84.7367L114.551 85.1621L116.295 82.9579C116.028 82.1389 115.666 81.2927 114.516 80.9021C115.162 80.7405 115.632 80.6229 116.14 80.4961L116.113 79.7134C115.772 79.6058 115.472 79.5117 115.166 79.4155L115.695 78.4279L115.094 77.6638L116.199 76.2388C115.407 75.6409 114.701 75.2376 114.156 74.6608C113.627 74.1011 114.076 72.7915 112.759 72.621C112.602 72.7463 112.34 72.9545 111.933 73.2789L111.783 71.4557L112.767 72.2739C112.71 71.5816 112.812 70.994 112.601 70.6207C112.138 69.7429 111.778 68.8043 111.527 67.8249C111.278 66.9194 111.1 65.99 110.994 65.0463C110.88 64.2044 110.548 63.4078 110.429 62.5668C110.302 61.678 110.419 60.7285 110.231 59.8645C110.064 59.0987 109.626 58.4099 109.312 57.6955Z" fill="var(--fill-0, black)"/>
<path id="Vector_4" d="M44.5371 46.2636L42.3717 46.4572C41.4765 47.4769 41.0637 48.5999 41.2696 50.2198C41.5129 50.3506 41.9621 50.5919 42.4919 50.8767C41.5054 52.7853 43.8023 53.2732 43.4896 54.7321C44.8319 56.6655 46.6558 58.0343 47.8365 60.0346C48.0517 60.31 48.3017 60.5517 48.5798 60.7531C50.3302 62.4271 51.9279 64.2743 53.3533 66.2719C54.3944 67.6152 55.5292 68.8707 56.7487 70.029C58.071 71.2862 59.224 72.7326 60.1777 74.3308C60.3925 74.6061 60.6417 74.848 60.919 75.0502C61.91 76.0056 63.0333 76.847 63.8464 77.9547C64.5017 78.8466 65.3533 79.4731 66.0785 80.2502C67.3306 81.5936 68.8354 82.669 70.2462 83.8414C71.6662 85.0215 73.0604 86.2429 74.5477 87.323C75.1671 87.7734 75.9988 87.904 76.7635 88.1911L78.7689 85.4602C79.155 84.6465 77.7729 84.3777 77.4267 83.4887L77.945 82.685L77.13 79.1677C74.6998 76.3388 72.1046 73.027 69.22 69.9728C67.81 68.4831 66.5523 66.8367 65.4663 65.0588C64.6856 63.7729 63.4354 62.8246 62.4285 61.6856C59.7615 58.6681 57.0265 55.6407 53.9252 53.166C51.0142 50.8421 48.505 47.9041 44.5371 46.2636Z" fill="var(--fill-0, black)"/>
<path id="Vector_5" d="M91.4923 123.769C92.6425 124.03 93.614 124.441 94.4071 125.003C95.2154 125.554 95.8665 126.248 96.3606 127.084L94.3317 128.813C93.9217 128.128 93.4354 127.577 92.8727 127.16C92.3254 126.733 91.6577 126.43 90.8702 126.252C90.4075 126.147 90.0212 126.111 89.7108 126.146C89.4006 126.181 89.1631 126.272 88.9983 126.419C88.8337 126.565 88.7258 126.751 88.6746 126.977C88.615 127.239 88.6829 127.491 88.8779 127.733C89.0881 127.965 89.4542 128.206 89.976 128.456L91.9513 129.397C93.1238 129.966 93.9352 130.591 94.3856 131.272C94.836 131.953 94.9575 132.75 94.7506 133.663C94.5519 134.539 94.1581 135.232 93.569 135.743C92.9829 136.241 92.2604 136.557 91.4017 136.691C90.5462 136.813 89.6117 136.759 88.599 136.529C87.7738 136.341 87.0062 136.075 86.2956 135.729C85.5881 135.372 84.9725 134.956 84.4488 134.482C83.9254 134.008 83.5069 133.505 83.1937 132.974L85.2394 131.169C85.4698 131.603 85.7773 132.014 86.1621 132.404C86.5625 132.785 87.0129 133.117 87.5137 133.402C88.0269 133.689 88.5648 133.897 89.1275 134.024C89.565 134.124 89.9375 134.162 90.245 134.14C90.5648 134.121 90.8135 134.039 90.9908 133.895C91.1679 133.751 91.2835 133.56 91.3375 133.323C91.3969 133.06 91.3529 132.82 91.205 132.602C91.06 132.372 90.7392 132.134 90.2423 131.89L88.0692 130.864C87.406 130.543 86.829 130.188 86.3385 129.8C85.8633 129.403 85.5204 128.944 85.31 128.423C85.1023 127.889 85.0765 127.278 85.2325 126.59C85.4085 125.814 85.7769 125.174 86.3383 124.67C86.9023 124.154 87.624 123.811 88.5037 123.643C89.3833 123.474 90.3794 123.516 91.4923 123.769ZM102.389 126.459L100.343 135.485C100.241 135.935 100.273 136.285 100.44 136.533C100.623 136.772 100.908 136.935 101.295 137.023C101.595 137.091 101.859 137.118 102.086 137.104C102.328 137.08 102.552 137.019 102.758 136.921L102.649 138.968C102.285 139.122 101.852 139.208 101.348 139.225C100.845 139.242 100.343 139.194 99.8429 139.081C99.1302 138.919 98.534 138.678 98.0542 138.359C97.5869 138.043 97.2592 137.633 97.071 137.13C96.8952 136.629 96.8833 136.015 97.0352 135.287L99.001 126.618L102.389 126.459ZM104.507 130.077L103.992 132.348L96.3967 130.624L96.9115 128.353L104.507 130.077ZM108.386 141.02C107.348 140.784 106.492 140.386 105.817 139.825C105.155 139.267 104.7 138.579 104.452 137.759C104.203 136.94 104.196 136.018 104.428 134.992C104.661 133.966 105.066 133.137 105.643 132.505C106.22 131.873 106.921 131.447 107.747 131.227C108.585 131.009 109.485 131.01 110.448 131.228C111.436 131.452 112.23 131.837 112.829 132.38C113.444 132.915 113.857 133.561 114.066 134.318C114.278 135.064 114.287 135.868 114.091 136.731C114.04 136.956 113.982 137.18 113.919 137.402C113.855 137.625 113.794 137.808 113.735 137.953L106.308 136.267L106.696 134.559L112.716 135.926L111.065 136.163C111.235 135.412 111.228 134.805 111.043 134.343C110.872 133.883 110.504 133.589 109.942 133.461C109.542 133.37 109.177 133.386 108.847 133.509C108.529 133.634 108.25 133.88 108.009 134.246C107.781 134.615 107.596 135.112 107.454 135.738C107.315 136.351 107.283 136.87 107.357 137.294C107.435 137.706 107.604 138.034 107.864 138.277C108.127 138.508 108.471 138.672 108.896 138.768C109.372 138.876 109.768 138.867 110.085 138.742C110.416 138.62 110.688 138.405 110.902 138.099L113.261 139.522C112.964 140.02 112.554 140.407 112.031 140.683C111.524 140.95 110.949 141.109 110.306 141.16C109.676 141.214 109.036 141.167 108.386 141.02ZM120.893 129.614L118.587 139.784C118.493 140.197 118.495 140.507 118.593 140.713C118.691 140.919 118.903 141.059 119.228 141.133C119.415 141.176 119.574 141.198 119.705 141.202C119.836 141.205 119.994 141.202 120.181 141.192L119.54 143.059C119.284 143.145 118.965 143.191 118.582 143.196C118.2 143.202 117.834 143.165 117.483 143.085C116.483 142.858 115.811 142.462 115.465 141.897C115.12 141.332 115.067 140.524 115.305 139.473L117.705 128.89L120.893 129.614ZM127.028 131.006L124.722 141.177C124.629 141.589 124.631 141.899 124.729 142.105C124.827 142.312 125.038 142.452 125.363 142.526C125.551 142.568 125.71 142.591 125.84 142.595C125.971 142.598 126.13 142.594 126.316 142.584L125.676 144.451C125.419 144.538 125.1 144.584 124.718 144.589C124.335 144.594 123.969 144.557 123.619 144.478C122.619 144.251 121.946 143.855 121.601 143.29C121.256 142.724 121.202 141.917 121.441 140.866L123.84 130.283L127.028 131.006ZM131.517 146.27C130.479 146.035 129.623 145.637 128.948 145.076C128.286 144.518 127.831 143.829 127.583 143.01C127.335 142.191 127.327 141.268 127.56 140.242C127.792 139.217 128.197 138.388 128.774 137.756C129.352 137.124 130.053 136.698 130.878 136.477C131.717 136.26 132.617 136.26 133.58 136.479C134.567 136.703 135.361 137.087 135.961 137.631C136.576 138.165 136.988 138.811 137.197 139.569C137.41 140.314 137.418 141.119 137.222 141.982C137.171 142.207 137.114 142.431 137.05 142.653C136.987 142.875 136.926 143.059 136.867 143.203L129.44 141.517L129.827 139.81L135.847 141.176L134.196 141.413C134.366 140.663 134.359 140.056 134.175 139.593C134.003 139.133 133.636 138.84 133.073 138.712C132.673 138.621 132.308 138.637 131.978 138.759C131.66 138.884 131.381 139.13 131.14 139.496C130.912 139.865 130.727 140.363 130.585 140.988C130.446 141.601 130.414 142.12 130.489 142.545C130.566 142.957 130.735 143.285 130.995 143.528C131.259 143.759 131.603 143.922 132.028 144.019C132.503 144.127 132.899 144.118 133.217 143.993C133.547 143.87 133.819 143.656 134.033 143.349L136.392 144.773C136.095 145.271 135.685 145.658 135.163 145.934C134.655 146.2 134.08 146.359 133.438 146.411C132.808 146.465 132.167 146.418 131.517 146.27ZM63.66 158.293L60.3406 157.539L60.1117 154.548L55.8733 153.586L54.3579 156.182L51.1135 155.445L58.2725 144.048L62.136 144.925L63.66 158.293ZM56.9713 151.526L60.0094 152.216L59.6263 146.861L56.9713 151.526ZM64.8746 158.569L67.0019 149.186L69.8525 149.833L69.2894 153.099L69.014 152.662C69.2921 152.015 69.6387 151.501 70.0533 151.122C70.4804 150.745 70.9571 150.498 71.4833 150.381C72.0248 150.254 72.5956 150.259 73.1958 150.395C73.846 150.542 74.3802 150.795 74.7985 151.153C75.2294 151.514 75.5271 151.97 75.6915 152.52C75.856 153.07 75.8546 153.715 75.6871 154.453L74.2704 160.701L71.0821 159.978L72.3075 154.574C72.455 153.923 72.4321 153.444 72.2387 153.137C72.0454 152.83 71.755 152.633 71.3673 152.545C71.0673 152.477 70.769 152.488 70.4723 152.578C70.1787 152.656 69.9213 152.835 69.7004 153.113C69.4794 153.392 69.3094 153.794 69.1902 154.32L68.0627 159.292L64.8746 158.569ZM83.1729 149.72L81.1263 158.746C81.0242 159.196 81.0567 159.545 81.2238 159.794C81.4063 160.032 81.6915 160.196 82.079 160.284C82.379 160.352 82.6425 160.379 82.8692 160.364C83.1113 160.341 83.3356 160.28 83.5417 160.182L83.4325 162.229C83.0688 162.383 82.6354 162.468 82.1319 162.486C81.6285 162.503 81.1267 162.455 80.6265 162.341C79.9138 162.18 79.3177 161.939 78.8379 161.62C78.3708 161.303 78.0429 160.893 77.8546 160.39C77.6788 159.89 77.6669 159.276 77.819 158.547L79.7846 149.878L83.1729 149.72ZM85.2908 153.338L84.776 155.608L77.1804 153.884L77.6952 151.614L85.2908 153.338ZM84.636 163.054L86.7633 153.672L89.5765 154.31L89.2483 156.367C89.6446 155.72 90.1181 155.255 90.6687 154.973C91.2317 154.693 91.8758 154.635 92.601 154.8C92.8385 154.854 93.0342 154.918 93.1883 154.992C93.3548 155.069 93.481 155.151 93.5669 155.236L92.6525 157.791C92.5387 157.712 92.3846 157.638 92.1904 157.567C92.0113 157.487 91.7842 157.416 91.5092 157.354C91.134 157.268 90.7656 157.27 90.4037 157.359C90.0417 157.448 89.7238 157.632 89.45 157.912C89.1915 158.182 89.0071 158.561 88.8963 159.049L87.8242 163.778L84.636 163.054ZM99.184 160.102C99.2833 159.664 99.2363 159.292 99.0431 158.985C98.865 158.668 98.5696 158.463 98.1571 158.369C97.7446 158.276 97.364 158.301 97.0158 158.446C96.6829 158.581 96.4006 158.898 96.1689 159.398L93.6129 158.147C93.9921 157.286 94.6179 156.671 95.49 156.304C96.3621 155.936 97.4796 155.907 98.8425 156.216C99.7552 156.424 100.499 156.737 101.074 157.157C101.665 157.567 102.068 158.08 102.284 158.694C102.515 159.299 102.542 159.989 102.366 160.765L101.588 164.199C101.477 164.687 101.641 164.98 102.078 165.08C102.303 165.131 102.49 165.147 102.639 165.128L102.039 166.906C101.624 166.996 101.148 166.98 100.61 166.858C100.122 166.747 99.7083 166.574 99.3671 166.339C99.029 166.091 98.789 165.787 98.6475 165.426C98.5086 165.052 98.4946 164.622 98.6052 164.134L98.6308 164.021L99.0167 163.971C98.8948 164.508 98.6302 164.922 98.2229 165.211C97.8281 165.503 97.3544 165.678 96.8021 165.737C96.2623 165.798 95.7173 165.767 95.1673 165.642C94.5296 165.497 93.996 165.271 93.5662 164.963C93.1363 164.655 92.8329 164.283 92.6554 163.848C92.4933 163.404 92.476 162.9 92.6037 162.337C92.7567 161.662 93.0831 161.15 93.5825 160.803C94.0971 160.447 94.8119 160.28 95.7269 160.304L99.4373 160.376L99.0356 162.061L97.1502 162.028C96.7581 162.017 96.4511 162.066 96.2296 162.174C96.0235 162.272 95.8877 162.464 95.8225 162.752C95.76 163.027 95.8133 163.257 95.9821 163.44C96.151 163.623 96.3729 163.745 96.6479 163.808C96.8606 163.856 97.0677 163.87 97.2694 163.85C97.4837 163.833 97.6798 163.779 97.8583 163.688C98.0396 163.584 98.1965 163.442 98.3294 163.262C98.4625 163.082 98.56 162.854 98.6225 162.579L99.184 160.102ZM97.5929 151.987C98.1056 152.103 98.471 152.318 98.6892 152.63C98.9202 152.946 98.9831 153.335 98.8781 153.798C98.776 154.248 98.5513 154.572 98.2042 154.769C97.8725 154.957 97.4504 154.993 96.9377 154.876C96.45 154.766 96.0908 154.553 95.86 154.237C95.6446 153.912 95.5879 153.524 95.69 153.074C95.7948 152.611 96.0133 152.286 96.345 152.098C96.6894 151.913 97.1054 151.876 97.5929 151.987ZM101.719 152.923C102.219 153.037 102.584 153.251 102.815 153.567C103.046 153.882 103.109 154.271 103.004 154.734C102.902 155.185 102.677 155.508 102.33 155.706C101.986 155.891 101.564 155.927 101.064 155.813C100.576 155.702 100.217 155.489 99.986 155.174C99.7704 154.849 99.7139 154.461 99.816 154.011C99.9208 153.548 100.139 153.222 100.471 153.035C100.815 152.85 101.231 152.813 101.719 152.923ZM115.348 157.516L115.125 159.715C115.056 159.673 114.984 159.644 114.909 159.626C114.837 159.597 114.763 159.574 114.688 159.557C114.138 159.432 113.694 159.476 113.357 159.688C113.035 159.892 112.828 160.193 112.737 160.594L111.706 159.926C111.822 159.413 112.028 158.94 112.323 158.507C112.618 158.074 112.994 157.752 113.45 157.539C113.918 157.33 114.452 157.293 115.052 157.43C115.09 157.438 115.133 157.448 115.183 157.459C115.246 157.474 115.301 157.492 115.348 157.516ZM109.897 166.598C110.985 166.845 111.764 167.265 112.234 167.859C112.719 168.442 112.866 169.159 112.673 170.01C112.497 170.786 112.138 171.382 111.597 171.798C111.056 172.215 110.369 172.46 109.537 172.534C108.715 172.624 107.779 172.549 106.728 172.311C105.028 171.925 103.851 171.434 103.197 170.838C102.543 170.243 102.299 169.582 102.463 168.857C102.582 168.331 102.892 167.954 103.39 167.726C103.889 167.497 104.635 167.482 105.629 167.681L105.486 167.964C104.746 167.691 104.228 167.337 103.932 166.901C103.636 166.466 103.557 165.948 103.693 165.348C103.829 164.747 104.177 164.313 104.737 164.046C105.298 163.778 105.976 163.715 106.772 163.857L107.811 164.665L107.511 164.597C107.018 164.511 106.656 164.514 106.424 164.606C106.193 164.699 106.055 164.845 106.009 165.045C105.961 165.257 106.012 165.44 106.161 165.592C106.314 165.732 106.565 165.842 106.915 165.921L109.897 166.598ZM107.215 170.251C107.815 170.387 108.319 170.456 108.727 170.456C109.144 170.472 109.469 170.427 109.703 170.323C109.934 170.23 110.071 170.09 110.114 169.903C110.157 169.715 110.122 169.549 110.01 169.406C109.895 169.274 109.656 169.168 109.294 169.085L105.937 168.323C105.699 168.269 105.491 168.288 105.313 168.379C105.147 168.473 105.042 168.614 105 168.801C104.935 169.089 105.098 169.356 105.489 169.603C105.877 169.862 106.452 170.078 107.215 170.251ZM109.944 158.736C110.894 158.952 111.679 159.262 112.297 159.665C112.916 160.068 113.346 160.548 113.588 161.102C113.846 161.648 113.897 162.264 113.741 162.952C113.588 163.628 113.276 164.162 112.805 164.555C112.347 164.951 111.753 165.197 111.021 165.294C110.292 165.379 109.452 165.313 108.502 165.098C107.014 164.76 105.945 164.228 105.295 163.501C104.657 162.778 104.453 161.909 104.682 160.896C104.838 160.208 105.144 159.672 105.599 159.289C106.069 158.896 106.67 158.651 107.402 158.554C108.134 158.457 108.982 158.518 109.944 158.736ZM109.532 160.557C109.119 160.463 108.754 160.505 108.438 160.683C108.134 160.864 107.932 161.173 107.833 161.611C107.737 162.037 107.787 162.396 107.983 162.691C108.191 162.988 108.502 163.184 108.915 163.277C109.315 163.368 109.673 163.324 109.989 163.147C110.306 162.968 110.512 162.667 110.609 162.241C110.708 161.803 110.653 161.436 110.445 161.139C110.236 160.841 109.932 160.647 109.532 160.557ZM118.601 170.961C117.563 170.726 116.707 170.327 116.032 169.766C115.37 169.208 114.915 168.52 114.667 167.701C114.419 166.881 114.411 165.959 114.644 164.933C114.876 163.907 115.281 163.078 115.858 162.447C116.435 161.814 117.137 161.388 117.962 161.168C118.8 160.95 119.701 160.951 120.664 161.169C121.651 161.394 122.445 161.778 123.045 162.322C123.66 162.856 124.072 163.502 124.282 164.26C124.494 165.005 124.502 165.809 124.306 166.672C124.255 166.898 124.198 167.121 124.134 167.344C124.071 167.566 124.009 167.749 123.95 167.894L116.524 166.208L116.911 164.501L122.931 165.867L121.28 166.104C121.45 165.353 121.443 164.747 121.259 164.284C121.087 163.824 120.72 163.53 120.157 163.402C119.757 163.312 119.392 163.327 119.062 163.45C118.744 163.575 118.465 163.821 118.224 164.187C117.996 164.556 117.811 165.053 117.669 165.679C117.53 166.292 117.498 166.811 117.573 167.235C117.65 167.648 117.819 167.975 118.079 168.219C118.342 168.449 118.687 168.613 119.112 168.709C119.587 168.817 119.983 168.808 120.301 168.683C120.631 168.561 120.903 168.346 121.117 168.04L123.476 169.463C123.179 169.962 122.769 170.349 122.247 170.624C121.739 170.891 121.164 171.05 120.522 171.101C119.892 171.155 119.251 171.109 118.601 170.961ZM137.625 160.758C138.138 160.874 138.575 161.033 138.937 161.233C139.302 161.421 139.563 161.605 139.719 161.786L138.949 163.702C138.831 163.583 138.691 163.479 138.527 163.389C138.363 163.3 138.15 163.225 137.887 163.165C137.45 163.066 137.065 163.084 136.732 163.219C136.411 163.356 136.194 163.675 136.081 164.176L135.804 165.395L135.873 165.963L133.992 174.257L130.804 173.534L133.127 163.288C133.263 162.688 133.473 162.196 133.757 161.813C134.054 161.433 134.408 161.146 134.821 160.95C135.233 160.754 135.679 160.645 136.157 160.622C136.636 160.599 137.125 160.644 137.625 160.758ZM138.782 165.48L138.268 167.75L130.916 166.081L131.431 163.811L138.782 165.48ZM141.077 176.063C140.439 175.918 139.901 175.684 139.461 175.361C139.037 175.028 138.743 174.586 138.579 174.036C138.414 173.485 138.421 172.816 138.6 172.028L140.021 165.761L143.209 166.485L141.958 172.001C141.822 172.602 141.846 173.048 142.03 173.339C142.213 173.631 142.524 173.826 142.962 173.926C143.187 173.977 143.408 173.987 143.625 173.958C143.845 173.916 144.048 173.83 144.235 173.702C144.425 173.561 144.587 173.367 144.722 173.122C144.871 172.866 144.988 172.557 145.07 172.194L146.21 167.165L149.398 167.889L147.271 177.271L144.42 176.625L144.726 174.839C144.276 175.434 143.745 175.833 143.134 176.037C142.525 176.227 141.84 176.236 141.077 176.063ZM143.448 162.474C143.961 162.591 144.326 162.805 144.545 163.118C144.775 163.433 144.838 163.822 144.733 164.285C144.631 164.735 144.407 165.059 144.059 165.257C143.728 165.445 143.306 165.48 142.793 165.364C142.305 165.253 141.946 165.04 141.715 164.725C141.5 164.399 141.443 164.012 141.545 163.562C141.65 163.099 141.868 162.773 142.2 162.586C142.545 162.401 142.961 162.364 143.448 162.474ZM147.574 163.411C148.074 163.524 148.44 163.739 148.67 164.054C148.901 164.37 148.964 164.759 148.859 165.222C148.757 165.672 148.532 165.996 148.185 166.193C147.841 166.378 147.419 166.414 146.919 166.3C146.431 166.19 146.072 165.977 145.841 165.661C145.626 165.336 145.569 164.948 145.671 164.498C145.776 164.035 145.994 163.71 146.326 163.522C146.671 163.337 147.086 163.3 147.574 163.411ZM149.562 177.792L151.689 168.409L154.502 169.048L154.174 171.104C154.57 170.457 155.044 169.993 155.594 169.71C156.157 169.43 156.801 169.372 157.527 169.537C157.764 169.591 157.96 169.655 158.114 169.729C158.28 169.807 158.407 169.888 158.492 169.973L157.578 172.528C157.464 172.45 157.31 172.375 157.116 172.305C156.937 172.225 156.71 172.153 156.435 172.091C156.06 172.006 155.691 172.008 155.329 172.096C154.967 172.185 154.649 172.369 154.376 172.649C154.117 172.92 153.932 173.299 153.822 173.786L152.75 178.515L149.562 177.792ZM34.5683 179.312L35.0363 177.248C36.2494 176.826 37.2962 176.412 38.1769 176.007C39.0575 175.602 39.7873 175.196 40.3662 174.788C40.9575 174.383 41.4183 173.974 41.7483 173.562C42.0783 173.151 42.2929 172.726 42.3921 172.288C42.5 171.813 42.4456 171.386 42.2288 171.008C42.0275 170.62 41.6517 170.364 41.1017 170.239C40.514 170.106 40.0081 170.221 39.5837 170.585C39.1623 170.937 38.8454 171.522 38.6331 172.342L36.0677 170.872C36.3027 169.952 36.6973 169.226 37.2517 168.694C37.8187 168.165 38.5002 167.827 39.2962 167.679C40.0952 167.518 40.9571 167.543 41.8823 167.753C42.695 167.937 43.3683 168.215 43.9019 168.586C44.4512 168.947 44.8692 169.365 45.1563 169.838C45.4463 170.298 45.625 170.786 45.6923 171.301C45.7748 171.806 45.7608 172.303 45.6502 172.791C45.4687 173.591 45.0921 174.295 44.5208 174.902C43.9521 175.497 43.2002 176.03 42.265 176.501C41.3452 176.963 40.2552 177.393 38.995 177.791L38.9908 177.81C39.2062 177.846 39.459 177.89 39.7494 177.943C40.0398 177.995 40.3413 178.057 40.6538 178.128C40.9692 178.187 41.2519 178.244 41.5021 178.301L44.409 178.961L43.8515 181.419L34.5683 179.312ZM50.6113 183.151C48.9235 182.768 47.7638 181.939 47.1325 180.664C46.5138 179.393 46.4427 177.706 46.9192 175.604C47.3958 173.503 48.1873 172.012 49.2938 171.132C50.4131 170.255 51.8165 170.008 53.5044 170.391C55.1923 170.774 56.3456 171.601 56.9644 172.873C57.5956 174.148 57.6731 175.836 57.1965 177.937C56.72 180.039 55.9221 181.528 54.8031 182.405C53.6963 183.285 52.2992 183.534 50.6113 183.151ZM51.1813 180.636C51.644 180.741 52.0475 180.701 52.3917 180.516C52.7388 180.319 53.0388 179.953 53.2913 179.418C53.5594 178.874 53.7985 178.139 54.0083 177.213C54.2183 176.288 54.3183 175.528 54.3083 174.934C54.3137 174.33 54.201 173.87 53.9702 173.555C53.7421 173.227 53.3969 173.01 52.9342 172.905C52.4842 172.803 52.0792 172.849 51.7196 173.044C51.3754 173.229 51.0692 173.593 50.8012 174.138C50.5487 174.672 50.3173 175.402 50.1073 176.328C49.8975 177.254 49.7898 178.019 49.7844 178.622C49.7942 179.217 49.9133 179.678 50.1412 180.006C50.3846 180.324 50.7313 180.534 51.1813 180.636ZM57.8096 184.587L58.2775 182.523C59.4906 182.101 60.5375 181.688 61.4181 181.283C62.2988 180.878 63.0287 180.471 63.6075 180.063C64.1988 179.658 64.6596 179.25 64.9896 178.838C65.3196 178.426 65.5342 178.001 65.6335 177.563C65.7413 177.088 65.6867 176.661 65.4702 176.284C65.2688 175.896 64.8931 175.64 64.3431 175.515C63.7554 175.381 63.2494 175.497 62.825 175.861C62.4035 176.212 62.0867 176.798 61.8744 177.618L59.309 176.148C59.544 175.228 59.9387 174.502 60.4931 173.97C61.06 173.441 61.7413 173.102 62.5375 172.954C63.3363 172.794 64.1985 172.818 65.1237 173.028C65.9363 173.213 66.6096 173.49 67.1433 173.862C67.6923 174.223 68.1106 174.64 68.3977 175.113C68.6877 175.574 68.8663 176.061 68.9335 176.576C69.0162 177.082 69.0021 177.579 68.8915 178.066C68.71 178.867 68.3335 179.571 67.7621 180.178C67.1935 180.772 66.4415 181.305 65.5063 181.777C64.5865 182.239 63.4965 182.669 62.2363 183.067L62.2321 183.085C62.4475 183.121 62.7004 183.165 62.9908 183.218C63.2812 183.271 63.5827 183.333 63.8952 183.404C64.2106 183.462 64.4933 183.52 64.7435 183.577L67.6502 184.236L67.0929 186.694L57.8096 184.587ZM73.1775 188.273C72.1021 188.029 71.2113 187.61 70.5046 187.015C69.8135 186.411 69.3067 185.573 68.9848 184.5L72.1358 183.735C72.1598 184.267 72.2879 184.717 72.5198 185.085C72.7644 185.457 73.1929 185.711 73.8056 185.851C74.1931 185.938 74.54 185.945 74.8463 185.87C75.1525 185.795 75.4106 185.643 75.6202 185.414C75.845 185.176 76.0015 184.863 76.0894 184.475C76.1744 184.1 76.1704 183.77 76.0771 183.486C75.9963 183.204 75.8325 182.97 75.5858 182.782C75.3419 182.582 75.0138 182.435 74.6012 182.342C74.3012 182.274 74.0252 182.244 73.7735 182.252C73.5246 182.249 73.2873 182.28 73.0617 182.347C72.8515 182.405 72.6467 182.496 72.4473 182.622L70.1113 181.618L72.4648 174.892L80.2665 176.663L79.7006 179.158L74.2431 177.92L73.3627 180.324L73.2385 180.612L73.2571 180.616C73.5725 180.385 73.9721 180.246 74.4563 180.198C74.9404 180.15 75.4575 180.188 76.0077 180.313C76.8204 180.497 77.4773 180.818 77.9788 181.273C78.4802 181.729 78.8233 182.274 79.0083 182.908C79.1931 183.542 79.2035 184.222 79.0388 184.947C78.8658 185.71 78.5842 186.343 78.194 186.847C77.8192 187.34 77.3592 187.716 76.8144 187.974C76.2821 188.235 75.7023 188.386 75.075 188.427C74.46 188.472 73.8275 188.421 73.1775 188.273ZM85.3004 190.827L87.4277 181.445L90.2783 182.092L89.7152 185.358L89.4398 184.921C89.7179 184.274 90.0644 183.76 90.479 183.381C90.9063 183.004 91.3829 182.757 91.909 182.64C92.4506 182.513 93.0213 182.518 93.6215 182.654C94.2717 182.801 94.806 183.054 95.2244 183.412C95.6552 183.773 95.9529 184.229 96.1173 184.779C96.2817 185.329 96.2804 185.974 96.1131 186.712L94.6962 192.96L91.5079 192.236L92.7333 186.832C92.8808 186.182 92.8579 185.703 92.6646 185.396C92.4712 185.089 92.1808 184.892 91.7933 184.804C91.4931 184.736 91.1948 184.747 90.8983 184.837C90.6044 184.915 90.3471 185.094 90.1262 185.372C89.9052 185.651 89.7352 186.053 89.616 186.578L88.4885 191.551L85.3004 190.827ZM103.563 184.91C104.551 185.135 105.37 185.524 106.02 186.08C106.685 186.625 107.14 187.314 107.385 188.145C107.646 188.968 107.66 189.892 107.427 190.917C107.195 191.943 106.782 192.777 106.19 193.418C105.613 194.051 104.905 194.475 104.067 194.692C103.244 194.9 102.339 194.892 101.351 194.669C100.388 194.45 99.5744 194.067 98.9094 193.522C98.2471 192.964 97.7858 192.274 97.5252 191.452C97.28 190.62 97.2737 189.691 97.5062 188.665C97.7388 187.64 98.1437 186.811 98.7208 186.179C99.3131 185.537 100.027 185.114 100.862 184.909C101.7 184.691 102.601 184.692 103.563 184.91ZM103.049 187.181C102.686 187.099 102.354 187.115 102.051 187.231C101.749 187.346 101.485 187.582 101.26 187.939C101.034 188.296 100.852 188.78 100.713 189.393C100.574 190.006 100.529 190.522 100.579 190.941C100.632 191.348 100.768 191.675 100.988 191.922C101.211 192.157 101.503 192.315 101.866 192.397C102.241 192.483 102.58 192.468 102.882 192.352C103.187 192.224 103.451 191.988 103.673 191.644C103.899 191.287 104.081 190.802 104.22 190.189C104.359 189.576 104.404 189.06 104.354 188.641C104.305 188.222 104.168 187.896 103.946 187.661C103.723 187.426 103.424 187.266 103.049 187.181ZM114.772 187.455C115.722 187.67 116.478 187.987 117.041 188.404C117.619 188.811 118.032 189.28 118.28 189.81C118.543 190.33 118.661 190.856 118.632 191.389L115.466 191.696C115.501 191.139 115.429 190.702 115.251 190.385C115.088 190.058 114.788 189.846 114.351 189.746C113.951 189.656 113.592 189.673 113.274 189.798C112.972 189.914 112.707 190.156 112.478 190.525C112.253 190.881 112.071 191.366 111.932 191.979C111.792 192.593 111.754 193.11 111.816 193.532C111.881 193.942 112.031 194.265 112.267 194.501C112.505 194.727 112.812 194.882 113.187 194.967C113.499 195.038 113.768 195.04 113.994 194.973C114.235 194.896 114.449 194.761 114.638 194.567C114.827 194.373 114.977 194.117 115.088 193.801L117.749 195.371C117.536 195.902 117.187 196.343 116.7 196.691C116.228 197.032 115.652 197.257 114.97 197.365C114.288 197.472 113.528 197.432 112.691 197.241C111.665 197.009 110.814 196.618 110.136 196.07C109.462 195.51 109 194.819 108.752 193.999C108.507 193.168 108.501 192.239 108.733 191.214C108.966 190.188 109.371 189.359 109.948 188.727C110.527 188.083 111.229 187.657 112.052 187.449C112.89 187.231 113.796 187.233 114.772 187.455ZM118.798 198.431L121.827 185.071L125.015 185.794L123.726 191.48C124.143 190.917 124.643 190.537 125.227 190.341C125.813 190.132 126.444 190.104 127.119 190.257C127.769 190.405 128.303 190.658 128.722 191.016C129.153 191.376 129.45 191.832 129.615 192.382C129.779 192.933 129.778 193.578 129.611 194.315L128.194 200.564L125.006 199.839L126.222 194.473C126.376 193.797 126.355 193.307 126.162 192.999C125.984 192.683 125.695 192.479 125.295 192.388C124.995 192.32 124.697 192.331 124.4 192.421C124.103 192.512 123.843 192.704 123.619 192.995C123.396 193.285 123.224 193.693 123.105 194.219L121.986 199.154L118.798 198.431ZM141.771 203.843C141.159 203.705 140.646 203.443 140.233 203.06C139.833 202.679 139.537 202.217 139.345 201.675C139.155 201.119 139.086 200.524 139.138 199.891L139.527 199.566L138.588 202.923L135.794 202.288L138.823 188.928L142.011 189.652L140.441 196.576L140.243 196.058C140.594 195.321 141.095 194.765 141.746 194.386C142.4 193.995 143.184 193.903 144.096 194.111C144.822 194.276 145.422 194.615 145.896 195.131C146.383 195.65 146.7 196.314 146.845 197.122C147.005 197.921 146.968 198.84 146.733 199.879C146.503 200.892 146.143 201.725 145.653 202.377C145.164 203.027 144.587 203.483 143.924 203.739C143.264 203.984 142.547 204.018 141.771 203.843ZM141.197 201.246C141.747 201.371 142.224 201.269 142.627 200.94C143.033 200.597 143.335 199.989 143.534 199.114C143.733 198.238 143.721 197.565 143.499 197.093C143.28 196.608 142.896 196.304 142.346 196.179C141.983 196.097 141.646 196.133 141.335 196.285C141.04 196.429 140.781 196.674 140.558 197.016C140.336 197.361 140.163 197.801 140.042 198.34C139.919 198.879 139.885 199.35 139.937 199.756C139.99 200.162 140.124 200.497 140.342 200.757C140.562 201.003 140.847 201.167 141.197 201.246ZM151.52 194.85C150.87 194.702 150.422 194.475 150.176 194.169C149.945 193.853 149.889 193.434 150.008 192.908C150.13 192.37 150.362 192.015 150.703 191.842C151.06 191.66 151.563 191.643 152.214 191.79C152.851 191.935 153.292 192.167 153.535 192.485C153.781 192.791 153.843 193.212 153.721 193.751C153.602 194.276 153.364 194.63 153.008 194.811C152.653 194.981 152.158 194.994 151.52 194.85ZM152.867 196.299L150.74 205.681L147.552 204.957L149.679 195.575L152.867 196.299ZM156.906 207.278C155.968 207.066 155.127 206.716 154.382 206.231C153.653 205.737 153.091 205.144 152.696 204.449L154.596 203.025C154.818 203.497 155.154 203.928 155.604 204.318C156.07 204.701 156.622 204.965 157.259 205.109C157.647 205.198 157.978 205.213 158.254 205.157C158.53 205.102 158.694 204.955 158.748 204.717C158.788 204.542 158.757 204.39 158.654 204.263C158.555 204.12 158.326 203.97 157.968 203.81L156.715 203.249C155.593 202.744 154.835 202.204 154.44 201.628C154.06 201.042 153.957 200.368 154.13 199.604C154.246 199.091 154.513 198.638 154.93 198.248C155.351 197.842 155.919 197.57 156.634 197.43C157.352 197.278 158.218 197.317 159.23 197.545C160.181 197.761 160.987 198.09 161.65 198.529C162.313 198.969 162.797 199.5 163.103 200.122L161.192 201.503C160.977 201.061 160.657 200.678 160.23 200.359C159.803 200.037 159.352 199.824 158.877 199.716C158.577 199.647 158.313 199.62 158.087 199.635C157.875 199.639 157.708 199.679 157.585 199.758C157.463 199.835 157.384 199.949 157.35 200.099C157.313 200.26 157.356 200.422 157.477 200.582C157.614 200.73 157.886 200.897 158.291 201.082L159.921 201.807C160.844 202.2 161.465 202.677 161.786 203.237C162.106 203.795 162.192 204.401 162.045 205.052C161.906 205.663 161.618 206.177 161.183 206.591C160.747 207.006 160.171 207.284 159.456 207.422C158.743 207.551 157.893 207.503 156.906 207.278ZM41.4046 208.486L41.8727 206.422C43.0856 206 44.1325 205.586 45.0131 205.182C45.8938 204.776 46.6237 204.37 47.2025 203.962C47.7938 203.556 48.2546 203.149 48.5846 202.737C48.9146 202.325 49.1292 201.9 49.2285 201.463C49.3363 200.988 49.2819 200.561 49.0652 200.182C48.8638 199.795 48.4881 199.539 47.9381 199.414C47.3504 199.279 46.8444 199.395 46.42 199.76C45.9985 200.11 45.6817 200.697 45.4694 201.517L42.904 200.047C43.139 199.127 43.5337 198.4 44.0881 197.869C44.655 197.34 45.3363 197.001 46.1325 196.853C46.9313 196.693 47.7935 196.716 48.7187 196.928C49.5313 197.111 50.2046 197.39 50.7383 197.761C51.2873 198.121 51.7056 198.538 51.9927 199.012C52.2827 199.472 52.4613 199.96 52.5285 200.476C52.6112 200.98 52.5971 201.476 52.4865 201.965C52.305 202.766 51.9285 203.47 51.3571 204.076C50.7885 204.671 50.0365 205.204 49.1013 205.675C48.1815 206.137 47.0915 206.568 45.8313 206.966L45.8271 206.983C46.0425 207.02 46.2954 207.064 46.5858 207.116C46.8762 207.17 47.1777 207.232 47.4902 207.303C47.8056 207.36 48.0883 207.418 48.3385 207.476L51.2452 208.136L50.6879 210.593L41.4046 208.486ZM60.1635 199.564C61.1012 199.777 61.8827 200.099 62.5079 200.53C63.1331 200.961 63.5752 201.476 63.834 202.075C64.1081 202.664 64.1658 203.306 64.0069 204.009C63.8565 204.671 63.565 205.204 63.1321 205.606C62.6992 206.006 62.1356 206.26 61.4413 206.366L61.4369 206.385C62.1304 206.804 62.6281 207.305 62.9302 207.888C63.235 208.455 63.3023 209.115 63.1321 209.866C62.9675 210.591 62.6181 211.176 62.0835 211.621C61.5642 212.055 60.8956 212.338 60.0773 212.467C59.2619 212.585 58.329 212.525 57.2788 212.286C56.2412 212.052 55.3798 211.705 54.6948 211.245C54.0127 210.776 53.525 210.231 53.2315 209.612C52.9533 208.983 52.8965 208.305 53.061 207.58C53.2312 206.829 53.5765 206.264 54.0969 205.883C54.6202 205.488 55.2852 205.252 56.0921 205.171L56.0963 205.152C55.525 204.773 55.1246 204.307 54.8948 203.755C54.6679 203.191 54.6294 202.577 54.7798 201.913C54.9387 201.213 55.2623 200.655 55.751 200.239C56.2548 199.814 56.8881 199.545 57.6506 199.427C58.4131 199.312 59.2508 199.358 60.1635 199.564ZM59.6504 201.913C59.1502 201.8 58.7217 201.834 58.365 202.017C58.0083 202.198 57.7788 202.516 57.6767 202.966C57.5773 203.403 57.6481 203.787 57.8885 204.118C58.1317 204.438 58.5035 204.653 59.0037 204.767C59.5038 204.88 59.926 204.844 60.2702 204.659C60.63 204.465 60.8594 204.149 60.9587 203.71C61.0608 203.26 60.9902 202.875 60.7467 202.558C60.516 202.242 60.1504 202.027 59.6504 201.913ZM57.8294 209.945C58.2294 210.037 58.5798 210.056 58.8804 210.006C59.1963 209.947 59.4563 209.816 59.6602 209.612C59.864 209.408 60.0015 209.15 60.0725 208.836C60.1462 208.511 60.1337 208.219 60.0346 207.959C59.9385 207.688 59.7594 207.462 59.4973 207.285C59.2381 207.095 58.9148 206.956 58.5271 206.868C58.1396 206.779 57.7815 206.764 57.4531 206.822C57.14 206.868 56.8815 206.995 56.6775 207.197C56.4765 207.389 56.339 207.647 56.2654 207.972C56.1944 208.286 56.2071 208.577 56.3033 208.85C56.3992 209.121 56.5769 209.352 56.8362 209.542C57.0983 209.719 57.4292 209.854 57.8294 209.945ZM66.6604 210.826C67.2481 210.959 67.6704 211.213 67.9273 211.586C68.1969 211.963 68.2706 212.421 68.1487 212.958C68.0296 213.483 67.7671 213.858 67.3615 214.082C66.9685 214.309 66.4781 214.355 65.8904 214.222C65.3152 214.091 64.8929 213.837 64.6235 213.46C64.3538 213.083 64.2787 212.633 64.3979 212.107C64.5198 211.569 64.7837 211.188 65.1892 210.964C65.595 210.741 66.0854 210.695 66.6604 210.826ZM74.4619 216.187C72.774 215.804 71.6144 214.974 70.9833 213.701C70.3644 212.429 70.2933 210.743 70.7698 208.64C71.2463 206.539 72.0379 205.048 73.1446 204.168C74.2637 203.291 75.6671 203.045 77.355 203.428C79.0429 203.81 80.1963 204.638 80.815 205.91C81.4463 207.183 81.5237 208.871 81.0471 210.974C80.5706 213.075 79.7729 214.564 78.6537 215.442C77.5471 216.321 76.1498 216.569 74.4619 216.187ZM75.0321 213.672C75.4946 213.777 75.8981 213.737 76.2423 213.552C76.5894 213.356 76.8894 212.989 77.1421 212.456C77.41 211.911 77.649 211.176 77.8588 210.251C78.0688 209.323 78.1688 208.565 78.1588 207.97C78.1644 207.366 78.0517 206.906 77.8208 206.591C77.5929 206.264 77.2475 206.046 76.785 205.942C76.3348 205.839 75.93 205.885 75.5704 206.081C75.226 206.266 74.9198 206.629 74.6519 207.174C74.3992 207.709 74.1679 208.438 73.9581 209.364C73.7481 210.291 73.6406 211.055 73.635 211.659C73.645 212.254 73.7638 212.713 73.9919 213.042C74.2352 213.36 74.5819 213.57 75.0321 213.672ZM81.6602 217.624L82.1283 215.559C83.3413 215.138 84.3881 214.724 85.2688 214.318C86.1494 213.914 86.8792 213.508 87.4581 213.1C88.0494 212.694 88.5102 212.286 88.8402 211.875C89.1702 211.463 89.3848 211.038 89.484 210.601C89.5919 210.124 89.5375 209.698 89.3208 209.319C89.1194 208.933 88.7438 208.677 88.1937 208.552C87.606 208.417 87.1 208.532 86.6758 208.896C86.2542 209.248 85.9373 209.835 85.7252 210.655L83.1596 209.185C83.3946 208.265 83.7892 207.538 84.3437 207.006C84.9106 206.477 85.5921 206.139 86.3881 205.991C87.1871 205.829 88.049 205.854 88.9742 206.064C89.7869 206.248 90.4602 206.527 90.994 206.899C91.5431 207.259 91.9612 207.676 92.2483 208.149C92.5383 208.609 92.7169 209.098 92.7842 209.612C92.8667 210.118 92.8527 210.614 92.7421 211.103C92.5606 211.903 92.1842 212.608 91.6127 213.214C91.044 213.808 90.2923 214.341 89.3571 214.813C88.4373 215.274 87.3471 215.705 86.0869 216.104L86.0827 216.121C86.2981 216.158 86.551 216.202 86.8413 216.254C87.1317 216.308 87.4333 216.369 87.7458 216.441C88.0612 216.498 88.344 216.556 88.594 216.614L91.501 217.272L90.9437 219.731L81.6602 217.624ZM95.1581 217.293C95.7458 217.428 96.1681 217.682 96.425 218.055C96.6946 218.432 96.7683 218.89 96.6463 219.427C96.5271 219.952 96.2648 220.327 95.8592 220.55C95.466 220.778 94.9756 220.824 94.3881 220.691C93.8129 220.56 93.3906 220.306 93.121 219.929C92.8515 219.552 92.7763 219.102 92.8956 218.576C93.0175 218.038 93.2813 217.657 93.6869 217.433C94.0925 217.21 94.5829 217.164 95.1581 217.293ZM98.2715 221.393L98.7396 219.331C99.9527 218.909 101 218.495 101.88 218.089C102.761 217.684 103.491 217.278 104.069 216.87C104.661 216.466 105.122 216.056 105.452 215.644C105.782 215.232 105.996 214.809 106.096 214.37C106.203 213.895 106.149 213.468 105.932 213.091C105.731 212.702 105.355 212.446 104.805 212.321C104.218 212.188 103.711 212.304 103.287 212.667C102.866 213.019 102.549 213.604 102.337 214.424L99.7712 212.954C100.006 212.034 100.401 211.309 100.955 210.776C101.522 210.249 102.203 209.91 103 209.762C103.798 209.6 104.661 209.625 105.586 209.835C106.398 210.02 107.072 210.297 107.605 210.668C108.154 211.03 108.572 211.447 108.86 211.921C109.15 212.381 109.328 212.867 109.396 213.383C109.478 213.889 109.464 214.386 109.353 214.872C109.172 215.675 108.796 216.377 108.224 216.985C107.656 217.58 106.904 218.113 105.968 218.584C105.049 219.046 103.959 219.475 102.698 219.873L102.694 219.892C102.909 219.927 103.162 219.971 103.453 220.025C103.743 220.077 104.045 220.139 104.357 220.21C104.673 220.27 104.955 220.327 105.205 220.383L108.112 221.043L107.555 223.502L98.2715 221.393ZM114.315 225.234C112.627 224.849 111.467 224.022 110.836 222.746C110.217 221.474 110.146 219.789 110.623 217.687C111.099 215.584 111.891 214.095 112.997 213.214C114.116 212.336 115.52 212.09 117.208 212.473C118.896 212.856 120.049 213.683 120.668 214.955C121.299 216.229 121.376 217.918 120.9 220.019C120.423 222.121 119.626 223.61 118.506 224.487C117.4 225.369 116.003 225.617 114.315 225.234ZM114.885 222.719C115.347 222.823 115.751 222.784 116.095 222.598C116.442 222.401 116.742 222.036 116.995 221.501C117.263 220.956 117.502 220.221 117.712 219.296C117.922 218.37 118.022 217.61 118.012 217.016C118.017 216.412 117.904 215.952 117.674 215.636C117.446 215.309 117.1 215.092 116.638 214.988C116.188 214.886 115.783 214.932 115.423 215.126C115.079 215.311 114.773 215.677 114.505 216.219C114.252 216.754 114.021 217.485 113.811 218.411C113.601 219.336 113.493 220.1 113.488 220.704C113.498 221.299 113.617 221.761 113.845 222.088C114.088 222.405 114.435 222.617 114.885 222.719ZM121.513 226.669L121.981 224.605C123.194 224.183 124.241 223.77 125.122 223.365C126.002 222.959 126.732 222.554 127.311 222.146C127.902 221.74 128.363 221.332 128.693 220.92C129.023 220.508 129.238 220.083 129.337 219.646C129.445 219.171 129.39 218.744 129.173 218.367C128.972 217.978 128.597 217.722 128.046 217.597C127.459 217.464 126.953 217.58 126.528 217.943C126.107 218.295 125.79 218.88 125.578 219.7L123.012 218.23C123.247 217.31 123.642 216.585 124.196 216.052C124.763 215.523 125.445 215.184 126.241 215.036C127.04 214.876 127.902 214.901 128.827 215.111C129.64 215.296 130.313 215.573 130.847 215.944C131.396 216.306 131.814 216.723 132.101 217.195C132.391 217.657 132.57 218.143 132.637 218.659C132.719 219.163 132.706 219.662 132.595 220.148C132.413 220.949 132.037 221.653 131.465 222.259C130.897 222.854 130.145 223.387 129.21 223.86C128.29 224.322 127.2 224.751 125.94 225.149L125.935 225.168C126.151 225.203 126.404 225.247 126.694 225.301C126.984 225.353 127.286 225.415 127.598 225.486C127.914 225.544 128.197 225.601 128.447 225.659L131.354 226.319L130.796 228.776L121.513 226.669ZM140.824 217.834C141.487 217.984 142.08 218.211 142.602 218.513C143.138 218.819 143.573 219.221 143.907 219.717C144.242 220.214 144.438 220.824 144.498 221.549L141.591 222.19C141.566 221.724 141.425 221.332 141.169 221.01C140.928 220.679 140.552 220.456 140.039 220.339C139.689 220.26 139.344 220.273 139.004 220.381C138.68 220.477 138.376 220.658 138.093 220.924C137.809 221.187 137.56 221.532 137.345 221.957C137.143 222.384 136.978 222.881 136.851 223.442C136.842 223.481 136.832 223.523 136.821 223.573C136.812 223.612 136.8 223.668 136.783 223.743L136.795 223.864C137.03 223.523 137.332 223.264 137.701 223.083C138.086 222.894 138.5 222.779 138.944 222.734C139.388 222.69 139.816 222.715 140.229 222.809C140.991 222.983 141.639 223.287 142.171 223.723C142.703 224.16 143.074 224.697 143.284 225.338C143.509 225.967 143.532 226.677 143.354 227.464C143.161 228.314 142.8 229.009 142.27 229.546C141.744 230.071 141.098 230.425 140.334 230.606C139.57 230.789 138.712 230.771 137.762 230.556C136.699 230.314 135.814 229.869 135.107 229.223C134.414 228.566 133.948 227.724 133.708 226.694C133.483 225.657 133.526 224.451 133.838 223.075C134.173 221.599 134.692 220.441 135.395 219.6C136.098 218.761 136.916 218.197 137.849 217.909C138.795 217.624 139.786 217.599 140.824 217.834ZM139.004 224.82C138.679 224.745 138.363 224.747 138.057 224.822C137.766 224.887 137.511 225.026 137.291 225.24C137.085 225.455 136.943 225.732 136.866 226.071C136.793 226.396 136.809 226.702 136.914 226.989C137.02 227.275 137.189 227.518 137.42 227.716C137.652 227.912 137.93 228.049 138.255 228.122C138.818 228.249 139.281 228.203 139.647 227.983C140.025 227.768 140.273 227.397 140.392 226.871C140.472 226.521 140.469 226.211 140.386 225.942C140.305 225.661 140.147 225.428 139.913 225.243C139.694 225.049 139.391 224.907 139.004 224.82Z" fill="var(--fill-0, white)"/>
</g>
</svg>
