<svg width="19" height="16" viewBox="0 0 19 16" fill="none" xmlns="http://www.w3.org/2000/svg">
<path d="M0 0V16H2.4V3H2.5L4.9 12.5H7.1L9.5 3H9.6V16H11.9V0H8.4L6 9.5H5.9L3.5 0H0Z" fill="white"/>
<path d="M9.8999 0H12.2999V5.68047H12.4999L11.6999 8.52071C11.6999 7.85799 11.7999 7.19527 11.9999 6.62722C12.1999 6.05917 12.3999 5.5858 12.6999 5.2071C12.9999 4.8284 13.3999 4.4497 13.8999 4.26036C14.3999 4.07101 14.8999 3.97633 15.3999 3.97633C15.9999 3.97633 16.4999 4.07101 16.8999 4.26036C17.2999 4.4497 17.6999 4.73373 17.9999 5.11243C18.2999 5.49112 18.4999 5.86982 18.6999 6.3432C18.8999 6.81657 18.8999 7.38462 18.8999 7.95266V16H16.4999V8.42604C16.4999 7.76331 16.2999 7.19527 15.9999 6.81657C15.6999 6.43787 15.1999 6.24852 14.5999 6.24852C14.1999 6.24852 13.8999 6.3432 13.5999 6.43787C13.2999 6.62722 12.9999 6.81657 12.7999 7.10059C12.5999 7.38462 12.3999 7.66864 12.2999 8.04734C12.1999 8.42604 12.0999 8.80473 12.0999 9.18343V16H9.8999V0Z" fill="white"/>
</svg>
