<svg xmlns="http://www.w3.org/2000/svg" width="32" height="32" viewBox="0 0 32 32">
  <rect width="32" height="32" rx="8" fill="transparent"/>
  <path d="M6 23V7h3.5l2.4 9.5h.1L14.4 7h3.5v16h-2.3V10h-.1l-2.4 9.5h-2.2L8.5 10h-.1v13H6zm12-16.5V6h2.4v6h.2l-.8 3c0-.7.1-1.4.3-2 .2-.6.4-1.1.7-1.5.3-.4.7-.8 1.2-1 .5-.2 1-.3 1.5-.3.6 0 1.1.1 1.5.3.4.2.8.5 1.1.9.3.4.5.8.7 1.3.2.5.2 1.1.2 1.7v8.5h-2.4v-8c0-.7-.2-1.3-.5-1.7-.3-.4-.8-.6-1.4-.6-.4 0-.7.1-1 .2-.3.2-.6.4-.8.7-.2.3-.4.6-.5 1-.1.4-.2.8-.2 1.2v7.2H18V6.5z" fill="white"/>
</svg>