<svg preserveAspectRatio="none" width="100%" height="100%" overflow="visible" style="display: block;" viewBox="0 0 527.079 130.08" fill="none" xmlns="http://www.w3.org/2000/svg">
<g id="Group 1000002846">
<path id="Path" d="M38.6535 4.54002C30.0719 4.54002 21.9125 11.4566 20.4289 19.9879L4.77253 110.094C3.28889 118.625 9.04505 125.54 17.6278 125.54H488.424C497.006 125.54 505.165 118.625 506.648 110.094L522.307 19.9879C523.79 11.4566 518.033 4.54002 509.448 4.54002H38.6535V4.54002Z" stroke="var(--stroke-0, white)" stroke-width="9.08004"/>
<path id="Shape" fill-rule="evenodd" clip-rule="evenodd" d="M47.5625 29.54L45.5395 41.4235H65.0781L54.9539 100.032H69.2276L79.3521 41.4235H98.991L101.116 29.54H47.5625ZM277.559 29.54L265.309 100.032H289.606C307.525 100.032 320.888 92.3792 320.888 77.4749C320.888 70.5266 317.952 65.9957 310.358 62.9748C319.066 59.8523 324.329 52.6008 324.329 44.8463C324.329 35.079 316.13 29.54 302.868 29.54H277.559ZM427.789 100.032L440.04 29.54H453.502L446.417 70.3258L466.663 49.0775H481.65L462.92 68.2082L473.652 100.032H459.882L452.794 77.9779L443.581 86.638L441.255 100.032H427.789ZM289.796 41.1181H301.743C306.604 41.1181 309.64 43.6363 309.64 47.7642C309.64 53.0015 304.779 57.3305 297.794 57.3305H286.961L289.796 41.1181ZM85.6077 71.9383C88.3421 57.1354 97.3502 47.7699 110.815 47.7699C122.557 47.7699 132.479 54.8184 129.543 71.6368L128.531 77.3751H97.2492C95.9322 85.4315 99.5776 89.8632 106.766 89.8632C111.93 89.8632 115.167 87.6478 118.913 83.4185L126.607 90.5676C121.748 97.2138 115.37 100.84 105.753 100.84C89.7575 100.84 82.1665 90.6696 85.4052 73.0476L85.6077 71.9383ZM159.301 47.7699C148.571 47.7699 141.687 52.6023 138.954 55.5241L146.242 62.9767C148.874 60.0559 152.214 58.0426 157.275 58.0426C162.743 58.0426 165.982 60.359 165.172 64.8905L164.767 67.2041H161.426C145.735 67.2041 132.879 73.0473 132.879 85.937C132.879 94.8996 139.156 100.84 147.153 100.84C150.899 100.84 155.353 99.5289 160.212 96.6094L159.606 100.034H172.056L178.029 65.4936C179.954 54.2156 171.754 47.7699 159.301 47.7699ZM188.493 61.6718C190.112 52.3067 200.641 47.9779 210.459 47.7761C215.824 47.676 221.292 48.7825 225.24 51.5024C229.392 49.0859 234.553 47.8765 239.615 47.7761C250.345 47.5756 261.886 52.3079 259.761 64.6953L253.586 100.04H240.122L246.196 65.7013C247.006 60.8676 243.967 58.7533 239.615 58.6519C234.35 58.5515 231.416 60.466 230.606 64.6953L224.43 100.04H210.965L217.04 65.4979C217.75 60.7659 214.711 58.7533 210.459 58.6519C206.613 58.5515 202.362 59.9607 201.855 62.6794L195.274 100.04H181.811L188.493 61.6718ZM351.964 47.7699C341.232 47.7699 334.345 52.6023 331.612 55.5241L338.902 62.9767C341.533 60.0559 344.875 58.0426 349.938 58.0426C355.405 58.0426 358.642 60.359 357.834 64.8905L357.427 67.2041H354.085C338.396 67.2041 325.539 73.0473 325.539 85.937C325.539 94.8996 331.817 100.84 339.815 100.84C343.558 100.84 348.012 99.5289 352.87 96.6094L352.265 100.034H364.717L370.69 65.4936C372.613 54.2156 364.413 47.7699 351.964 47.7699ZM381.102 61.6717C382.72 52.3066 393.753 47.9778 403.575 47.776C414.304 47.5755 426.352 52.3078 424.225 64.6952L418.053 100.04H404.588L410.66 65.7012C411.471 60.8675 407.927 58.7532 403.575 58.6518C399.727 58.5514 394.968 59.9606 394.465 62.6793L387.883 100.04H374.421L381.102 61.6717ZM110.015 57.9294C115.684 57.9294 118.722 60.9503 118.215 66.388L118.015 68.5036H98.7789C100.197 61.2534 104.144 57.9294 110.015 57.9294ZM295.979 68.9201H284.945L281.605 88.454H292.536C300.94 88.454 306.204 83.8218 306.204 77.0752C306.204 71.3356 302.459 68.9201 295.979 68.9201ZM159.939 75.9579H163.282L161.458 86.2305C159.129 87.9416 154.676 89.9568 151.436 89.9568C148.399 89.9568 145.768 88.2451 145.768 84.4181C145.768 78.5781 151.942 75.9579 159.939 75.9579ZM355.887 75.9579H352.548C344.55 75.9579 338.375 78.5781 338.375 84.4181C338.375 88.2451 341.009 89.9568 344.044 89.9568C347.283 89.9568 351.738 87.9416 354.064 86.2305L355.887 75.9579Z" fill="var(--fill-0, white)"/>
</g>
</svg>
