<svg preserveAspectRatio="none" width="100%" height="100%" overflow="visible" style="display: block;" viewBox="0 0 268 104" fill="none" xmlns="http://www.w3.org/2000/svg">
<g id="Frame" clip-path="url(#clip0_2049_11648)">
<path id="Vector" d="M196.954 50.8016C196.954 33.3816 209.146 19.2896 224.227 19.2896C229.232 19.4536 234.091 21.0021 238.252 23.7594C242.413 26.5167 245.71 30.3725 247.769 34.8896H268.001C261.8 15.4416 244.564 1.40156 224.227 1.40156C198.688 1.40156 177.984 23.5536 177.984 50.8016C177.984 63.1776 182.188 74.4096 189.177 83.0416L204.784 72.9016C199.648 66.6849 196.877 58.883 196.954 50.8536V50.8016Z" fill="var(--fill-0, white)"/>
<path id="Vector_2" d="M227.011 67.966H244.51C244.51 67.966 237.678 90.326 215.45 82.682L198.845 93.602C209.302 99.998 235.524 111.178 254.967 78.522V100.102H267.842V54.082H226.958V67.966H227.011Z" fill="var(--fill-0, white)"/>
<path id="Vector_3" d="M178.772 1.92583H156.596L132.476 69.7858L124.699 47.7898H102.786L121.704 100.102H143.249L178.772 1.92583ZM108.356 1.92583H86.1808L97.2161 32.3978H119.234L108.409 1.92583H108.356ZM75.5134 1.87383H1.73453V21.3218H75.5134V1.87383ZM75.5134 41.4458H1.73453V60.8938H75.5134V41.4458ZM75.5134 81.0178H1.73453V100.414H75.5134V81.0178Z" fill="var(--fill-0, white)"/>
</g>
<defs>
<clipPath id="clip0_2049_11648">
<rect width="268" height="104" fill="white"/>
</clipPath>
</defs>
</svg>
