<svg preserveAspectRatio="none" width="100%" height="100%" overflow="visible" style="display: block;" viewBox="0 0 42.9646 20.4775" fill="none" xmlns="http://www.w3.org/2000/svg">
<g id="Union">
<path d="M25.1053 18.0872H25.6113L25.4977 18.6648H24.9914L24.8659 19.3242C24.8507 19.406 24.8369 19.4742 24.8248 19.5303C24.8133 19.5799 24.8072 19.6307 24.8067 19.6816C24.8044 19.7156 24.8089 19.7497 24.8198 19.782C24.8308 19.8142 24.848 19.844 24.8704 19.8696C24.8945 19.8921 24.9229 19.9094 24.9539 19.9206C24.9848 19.9318 25.0177 19.9366 25.0506 19.9346C25.1246 19.9337 25.198 19.92 25.2674 19.8939L25.1781 20.4274C25.0366 20.4575 24.8922 20.4738 24.7474 20.476C24.5665 20.4875 24.3873 20.4334 24.2427 20.3242C24.1815 20.2709 24.1331 20.2044 24.1016 20.1296C24.0701 20.0547 24.0561 19.9734 24.0609 19.8923C24.0609 19.8853 24.0606 19.8783 24.0605 19.8713C24.0601 19.8571 24.0598 19.8427 24.0609 19.8285C24.0624 19.8073 24.0654 19.783 24.0699 19.7528C24.0745 19.7225 24.0805 19.6861 24.0897 19.6422C24.0984 19.6 24.1086 19.5481 24.1201 19.4891V19.4883L24.1213 19.4817L24.2731 18.6677H23.8305L23.9486 18.0901H24.3883L24.4747 17.6356L25.2234 17.4369L25.1053 18.0872Z" fill="var(--fill-0, #0066B3)"/>
<path fill-rule="evenodd" clip-rule="evenodd" d="M26.9988 18.0144C27.2698 17.9991 27.5362 18.0913 27.74 18.2707C27.8306 18.36 27.9013 18.4676 27.9473 18.5862C27.9933 18.7048 28.0136 18.8319 28.007 18.9589C28.0062 19.0359 28.0011 19.1128 27.9918 19.1893C27.9817 19.2672 27.9653 19.3442 27.9432 19.4196H26.3484C26.3472 19.495 26.3631 19.5696 26.3945 19.638C26.426 19.7065 26.4726 19.7672 26.5306 19.8153C26.6933 19.9084 26.8802 19.9501 27.0671 19.935C27.1818 19.9336 27.2961 19.9197 27.4081 19.8939C27.5282 19.8687 27.6444 19.8276 27.7536 19.7713L27.6598 20.346C27.6053 20.3642 27.5428 20.3807 27.4776 20.3974C27.4125 20.4141 27.3443 20.4275 27.2777 20.4381L27.0835 20.4657C27.0273 20.4727 26.9707 20.4763 26.914 20.4764C26.7389 20.4792 26.5642 20.4539 26.397 20.4019C26.255 20.3585 26.1236 20.2861 26.0107 20.1897C25.9043 20.0974 25.8204 19.9816 25.7664 19.8515C25.7067 19.7075 25.6772 19.5528 25.68 19.397C25.678 19.209 25.7123 19.022 25.7803 18.8466C25.8424 18.6838 25.9359 18.5347 26.0559 18.4085C26.1728 18.2838 26.3152 18.1853 26.4731 18.1193C26.6392 18.0487 26.8182 18.0128 26.9988 18.0144ZM26.9683 18.5118C26.901 18.5094 26.8336 18.5202 26.7705 18.5438C26.7073 18.5675 26.6495 18.6035 26.6002 18.6496C26.4989 18.7463 26.4261 18.8693 26.3896 19.0046H27.3579C27.3588 18.9879 27.3588 18.971 27.3579 18.9544L27.3583 18.9519C27.3598 18.9347 27.3612 18.9187 27.3612 18.9042C27.3666 18.8513 27.36 18.7979 27.3422 18.7479C27.3244 18.6978 27.2959 18.6522 27.2583 18.6146C27.2208 18.577 27.1751 18.5485 27.1251 18.5307C27.0749 18.5129 27.0211 18.5063 26.9683 18.5118Z" fill="var(--fill-0, #0066B3)"/>
<path fill-rule="evenodd" clip-rule="evenodd" d="M22.0802 18.0144C22.2014 18.0122 22.3219 18.0354 22.4336 18.0827C22.5343 18.1269 22.6227 18.1952 22.6911 18.2814C22.7327 18.3374 22.7661 18.3992 22.7898 18.4649L22.8881 18.0934H23.543L23.0884 20.4064H22.4426L22.4833 20.0881C22.4495 20.144 22.4083 20.1951 22.3608 20.2399C22.2805 20.3147 22.1867 20.3735 22.0847 20.4139C21.9815 20.4547 21.8715 20.4756 21.7606 20.4747C21.595 20.4788 21.4318 20.4334 21.2921 20.3443C21.1557 20.2536 21.048 20.1258 20.9815 19.9762C20.9045 19.8037 20.8667 19.6162 20.8708 19.4274C20.8691 19.2419 20.9007 19.0574 20.9646 18.8832C21.0249 18.7176 21.1139 18.5634 21.2271 18.4283C21.3351 18.3026 21.4668 18.1994 21.615 18.1251C21.7594 18.0528 21.9187 18.0149 22.0802 18.0144ZM22.1789 18.6376C22.0706 18.6383 21.9649 18.6715 21.8758 18.7331C21.7803 18.7971 21.703 18.8848 21.6516 18.9877C21.5969 19.0978 21.5691 19.2194 21.571 19.3423C21.5687 19.4353 21.5878 19.5277 21.6269 19.6121C21.6627 19.6862 21.7206 19.7478 21.7923 19.7882C21.8678 19.8298 21.9533 19.8505 22.0395 19.8487C22.1509 19.8496 22.26 19.8163 22.3517 19.7532C22.4467 19.6894 22.523 19.6015 22.573 19.4986C22.6266 19.3882 22.6525 19.2665 22.6487 19.144C22.6506 19.0511 22.6303 18.9588 22.5895 18.8754C22.5534 18.8025 22.4971 18.7415 22.4274 18.6997C22.3517 18.6571 22.2659 18.6357 22.1789 18.6376Z" fill="var(--fill-0, #0066B3)"/>
<path fill-rule="evenodd" clip-rule="evenodd" d="M35.0082 18.0144C35.1289 18.0121 35.2488 18.0354 35.3599 18.0827C35.4611 18.1261 35.5497 18.1946 35.6174 18.2814C35.6602 18.3369 35.6938 18.3989 35.7174 18.4649L35.81 18.0934H36.471L36.016 20.4064H35.369L35.4114 20.0881C35.3775 20.144 35.336 20.1951 35.2884 20.2399C35.2079 20.3143 35.1145 20.3732 35.0128 20.4139C34.909 20.4548 34.7981 20.4756 34.6865 20.4747C34.5216 20.4787 34.3592 20.4332 34.2201 20.3443C34.0837 20.2532 33.9754 20.1256 33.9079 19.9762C33.8315 19.8036 33.7939 19.6161 33.7972 19.4274C33.796 19.2418 33.8282 19.0573 33.8926 18.8832C33.9522 18.7172 34.0408 18.563 34.1547 18.4283C34.2626 18.3026 34.3945 18.1995 34.5426 18.1251C34.687 18.0526 34.8466 18.0147 35.0082 18.0144ZM35.1189 18.6376C35.0081 18.6374 34.8995 18.6706 34.8079 18.7331C34.7132 18.7976 34.6368 18.8853 34.5854 18.9877C34.5303 19.0977 34.5022 19.2192 34.5035 19.3423C34.5019 19.4353 34.521 19.5275 34.5594 19.6121C34.5942 19.6851 34.6495 19.7464 34.7186 19.7882C34.7948 19.8296 34.8804 19.8503 34.9671 19.8487C35.0786 19.8496 35.1875 19.8163 35.2793 19.7532C35.3739 19.689 35.4503 19.6012 35.5006 19.4986C35.5579 19.3892 35.5876 19.2674 35.587 19.144C35.5886 19.0513 35.5688 18.9592 35.5294 18.8754C35.4931 18.8021 35.4363 18.741 35.3657 18.6997C35.2906 18.657 35.2052 18.6354 35.1189 18.6376Z" fill="var(--fill-0, #0066B3)"/>
<path d="M37.5257 19.3559C37.5143 19.4096 37.5083 19.4646 37.5076 19.5196C37.5076 19.7332 37.6047 19.8392 37.8108 19.8392C37.868 19.8399 37.9247 19.8283 37.977 19.8051C38.0293 19.7818 38.0761 19.7473 38.1139 19.7043C38.2061 19.5927 38.266 19.458 38.2867 19.3147L38.5294 18.0872H39.2431L38.796 20.3958H38.1366L38.1975 20.0062C38.1333 20.1374 38.0347 20.2487 37.9124 20.3287C37.7784 20.4198 37.6198 20.4682 37.4578 20.4669C37.3642 20.4726 37.2703 20.458 37.1826 20.4245C37.0952 20.3911 37.0158 20.3393 36.9498 20.2728C36.8205 20.1233 36.7546 19.9292 36.7664 19.7318C36.7666 19.63 36.7775 19.5283 36.7984 19.4287L37.0605 18.0872H37.7746L37.5257 19.3559Z" fill="var(--fill-0, #0066B3)"/>
<path d="M30.0757 18.0144C30.1678 18.0098 30.2599 18.0245 30.3459 18.0576C30.4321 18.0907 30.5106 18.1417 30.5759 18.2069C30.7054 18.3558 30.7716 18.5496 30.7606 18.7466C30.7606 18.7645 30.7613 18.782 30.7618 18.7993C30.7628 18.8331 30.7636 18.866 30.7606 18.898C30.7561 18.9465 30.7503 18.9983 30.7413 19.0498L30.4788 20.4003H29.7787L30.0272 19.121C30.0393 19.0891 30.0391 19.0587 30.0391 19.0329V18.9589C30.0427 18.9157 30.0379 18.8719 30.0247 18.8306C30.0113 18.7892 29.9902 18.7509 29.9622 18.7178C29.9309 18.6886 29.8936 18.6663 29.8531 18.6524C29.8126 18.6386 29.7695 18.6333 29.7269 18.6372C29.6488 18.6368 29.572 18.6583 29.5056 18.6993C29.4353 18.7444 29.3774 18.8066 29.3373 18.8799C29.2868 18.9686 29.2528 19.0658 29.2361 19.1666L28.9963 20.4003H28.2962L28.7433 18.0872H29.4163L29.3649 18.4147C29.4522 18.2631 29.5877 18.1449 29.7499 18.0794C29.8531 18.0364 29.9638 18.0144 30.0757 18.0144Z" fill="var(--fill-0, #0066B3)"/>
<path d="M41.2131 16.7183C41.3149 16.7176 41.4167 16.7284 41.5162 16.7503C41.5955 16.7664 41.6719 16.795 41.7421 16.8351L41.6434 17.4233C41.5394 17.3662 41.4226 17.3364 41.304 17.3369C41.2411 17.3341 41.1784 17.3443 41.1197 17.367C41.061 17.3897 41.0076 17.4242 40.963 17.4686C40.8654 17.5874 40.8033 17.7315 40.784 17.884L40.7462 18.0872H41.3221L41.2131 18.6644H40.6355L40.3052 20.4003H39.5928L39.926 18.6644H39.5426L39.6504 18.0872H40.0366L40.093 17.7931C40.2334 17.0767 40.6068 16.7183 41.2131 16.7183Z" fill="var(--fill-0, #0066B3)"/>
<path fill-rule="evenodd" clip-rule="evenodd" d="M19.4492 16.9667C19.6559 16.9715 19.8606 17.011 20.0547 17.0835C20.23 17.1505 20.3812 17.2687 20.4883 17.4229C20.5915 17.5842 20.6444 17.7728 20.6401 17.9642C20.6451 18.1531 20.5993 18.3398 20.508 18.5052C20.422 18.6558 20.3033 18.7855 20.1608 18.8844C20.0749 18.9442 19.9829 18.9949 19.8865 19.0358L20.5339 20.3999H19.7125L19.2213 19.1872H18.7042L18.4694 20.3999H17.7343L18.3998 16.9667H19.4492ZM19.2986 17.5323H19.0271L18.8137 18.6356H19.1666C19.2996 18.6384 19.4317 18.6119 19.5533 18.5582C19.6574 18.5127 19.7449 18.436 19.8034 18.3386C19.8627 18.2382 19.8926 18.1232 19.8898 18.0066C19.8938 17.9403 19.8819 17.8739 19.8556 17.8129C19.8293 17.7518 19.789 17.6975 19.738 17.6549C19.61 17.5647 19.4548 17.5215 19.2986 17.5323Z" fill="var(--fill-0, #0066B3)"/>
<path d="M32.0576 18.9527L32.9745 18.0868H33.8371L32.6335 19.1753L33.5311 20.3999H32.6944L31.9803 19.3513L31.777 20.3999H31.0769L31.7865 16.7413H32.4866L32.0576 18.9527Z" fill="var(--fill-0, #0066B3)"/>
<path d="M17.3155 8.01237C18.4841 8.01237 19.2072 8.15163 19.6285 8.28962L19.3451 9.6401C18.7825 9.46849 18.1959 9.38802 17.608 9.40192C15.7255 9.40197 14.8162 11.2754 14.8161 12.6047C14.8161 13.8537 15.6103 14.4373 16.738 14.4373C17.3149 14.4452 17.8867 14.3282 18.4142 14.0946L18.093 15.6257C17.5541 15.7572 17.0018 15.8263 16.4471 15.8318C14.1811 15.8318 12.882 14.492 12.8819 12.5595C12.8819 10.2192 14.678 8.01237 17.3155 8.01237Z" fill="var(--fill-0, #0066B3)"/>
<path d="M41.717 10.457H42.9646L42.7433 11.7269H41.4245L41.1123 13.1851C41.0336 13.4829 40.983 13.7875 40.9609 14.0946C40.9561 14.1736 40.968 14.2525 40.9963 14.3262C41.0246 14.4 41.0683 14.467 41.1246 14.5225C41.1809 14.5778 41.2488 14.6204 41.3229 14.6475C41.3971 14.6746 41.4762 14.6856 41.5549 14.6796C41.7571 14.6629 41.9551 14.6118 42.1403 14.5282L41.9383 15.7269C41.5655 15.7886 41.1886 15.8224 40.8108 15.8273C39.8847 15.8273 39.1436 15.3723 39.1436 14.2765C39.1572 13.9124 39.2109 13.5509 39.304 13.1987L39.6162 11.7285H38.6508L38.8766 10.457H39.9136L40.1666 9.33076L42.0794 8.81698L41.717 10.457Z" fill="var(--fill-0, #0066B3)"/>
<path fill-rule="evenodd" clip-rule="evenodd" d="M34.8281 14.9194C34.7689 15.2315 34.7385 15.4937 34.7174 15.7043H33.0502L33.1942 14.8692H33.1806C32.7168 15.4527 32.2848 15.8256 31.2768 15.8256C30.1491 15.8256 29.3246 14.8388 29.3246 13.6611C29.3246 11.9393 30.19 10.3374 31.9815 10.3373C32.891 10.3373 33.5277 10.7406 33.8005 11.3044H33.8157L34.4508 8.15305H36.2258L34.8281 14.9194ZM32.5516 11.7273C31.7013 11.7273 31.1877 12.5425 31.1876 13.3579C31.1876 14.0036 31.4799 14.4356 32.0543 14.4357C32.9091 14.4357 33.4231 13.4884 33.4171 12.7882C33.4171 12.2713 33.1579 11.7273 32.5516 11.7273Z" fill="var(--fill-0, #0066B3)"/>
<path fill-rule="evenodd" clip-rule="evenodd" d="M26.499 10.3283C27.8782 10.3284 28.9149 11.0242 28.9149 12.6142C28.8994 12.9466 28.8558 13.2772 28.7845 13.6023H25.0695C25.0893 14.1661 25.3712 14.6088 26.4792 14.6088C27.0449 14.6021 27.6034 14.4786 28.1193 14.2464L27.8902 15.5331C27.2951 15.7126 26.6779 15.8084 26.0564 15.817C24.3042 15.817 23.3566 14.7391 23.3566 13.4204C23.3566 12.2017 24.1633 10.3283 26.499 10.3283ZM26.5261 11.5471C26.2172 11.5373 25.9143 11.6346 25.6689 11.8227C25.4235 12.0109 25.2508 12.2781 25.1802 12.5792L27.4126 12.5837C27.4126 12.0199 27.1915 11.5472 26.5261 11.5471Z" fill="var(--fill-0, #0066B3)"/>
<path d="M22.8285 10.3357C23.0871 10.331 23.3443 10.3755 23.5862 10.4673L23.1724 12.0679C22.9405 11.8876 22.6796 11.847 22.3357 11.847C21.5779 11.8471 21.1232 12.5107 20.9868 13.2867L20.4731 15.703H18.6541L19.7725 10.457H21.3871L21.1855 11.5344H21.2065C21.4975 10.9206 22.0828 10.3357 22.8285 10.3357Z" fill="var(--fill-0, #0066B3)"/>
<path d="M37.3056 15.7026H35.4685L36.5599 10.457H38.3924L37.3056 15.7026Z" fill="var(--fill-0, #0066B3)"/>
<path d="M23.2086 5.38835H23.2283L25.0091 2.07654H26.9342L23.4936 8.01648L23.2933 8.33652C22.7598 9.26253 22.1641 9.87783 21.0062 9.87786C20.6395 9.88089 20.2738 9.83787 19.9177 9.75034L20.2012 8.40439C20.3945 8.45873 20.5947 8.48697 20.7956 8.48789C21.3123 8.4878 21.5882 8.11652 21.8564 7.62241L22.0506 7.30279L20.8922 2.07654H22.7355L23.2086 5.38835Z" fill="var(--fill-0, #0066B3)"/>
<path d="M38.5747 9.60225H36.7421L37.0239 8.27276H38.8564L38.5747 9.60225Z" fill="var(--fill-0, #0066B3)"/>
<path d="M9.34636 0.207762C10.4097 -0.117886 11.554 -0.0592987 12.5784 0.373537C13.6027 0.806309 14.4421 1.58571 14.9498 2.5751C15.1158 2.93299 15.2003 3.32339 15.197 3.71784C15.197 5.38511 13.6206 6.10983 12.9445 6.10986C12.9173 6.11357 12.8895 6.11113 12.8634 6.10246C12.8374 6.09375 12.8138 6.07902 12.7943 6.05968C12.7748 6.04034 12.7601 6.01652 12.7511 5.99057C12.7422 5.96465 12.7394 5.93712 12.7429 5.90994C12.7575 5.75539 12.7889 5.60263 12.8367 5.45499L13.5796 2.17197H12.4443L12.2777 2.80998C12.1131 2.5431 11.8822 2.32339 11.6076 2.17197C11.333 2.02064 11.0239 1.94284 10.7104 1.94614C9.17045 1.94614 7.92719 3.41953 7.92719 5.202C7.93178 6.51614 8.90512 7.42537 10.0267 7.42537C10.5799 7.42534 11.0528 7.101 11.3908 6.7236H11.4179C11.4157 6.81865 11.4332 6.91336 11.4694 7.00126C11.5055 7.0893 11.56 7.16895 11.6285 7.23491C11.697 7.30079 11.7784 7.35189 11.8675 7.38464C11.9569 7.41746 12.0523 7.43127 12.1473 7.42537C12.7506 7.42532 14.3617 6.9812 15.3439 5.83384C15.0867 6.9157 14.4572 7.87278 13.5656 8.53726C12.6739 9.20182 11.5767 9.53182 10.4665 9.46897C9.35621 9.40617 8.30338 8.9546 7.49239 8.19378C6.68129 7.43292 6.16356 6.41092 6.03003 5.3069C5.89656 4.20303 6.15571 3.0873 6.76183 2.15511C7.36811 1.22288 8.28308 0.533434 9.34636 0.207762Z" fill="var(--fill-0, #0066B3)"/>
<path fill-rule="evenodd" clip-rule="evenodd" d="M3.14233 1.95684C4.52157 1.9569 5.55821 2.65242 5.55821 4.24232C5.54249 4.57281 5.49887 4.90146 5.42781 5.22463H1.70835C1.72963 5.78841 2.01161 6.23121 3.11806 6.23121C3.68435 6.22525 4.24321 6.10179 4.75936 5.86881L4.53065 7.151C3.93634 7.33296 3.31948 7.43133 2.69807 7.44347C0.945911 7.44347 6.84573e-05 6.36444 0 5.04733C0 3.82867 0.805035 1.95533 3.14233 1.95684ZM3.15878 3.16334C2.85004 3.15543 2.54813 3.2543 2.30399 3.44347C2.05985 3.63265 1.88843 3.90058 1.819 4.20159H4.04566C4.04566 3.63775 3.82264 3.16334 3.15878 3.16334Z" fill="var(--fill-0, #0066B3)"/>
<path d="M18.8564 1.96424C19.4494 1.98101 20.0369 2.08463 20.5998 2.27193L20.216 3.46033C19.7582 3.26429 19.2651 3.16473 18.7672 3.16786C18.364 3.16786 17.9215 3.25872 17.9214 3.62241C17.9214 3.85632 18.2833 3.99031 18.7178 4.151C19.3701 4.39221 20.1859 4.69396 20.1859 5.48543C20.1859 6.80405 19.0886 7.42523 17.7351 7.44347C16.9915 7.45185 16.25 7.36008 15.5311 7.17074L15.8873 5.93257C16.3513 6.13347 16.8518 6.2367 17.3575 6.23573C17.6485 6.23573 18.3747 6.20672 18.3747 5.78078C18.3746 5.48544 18.0345 5.36739 17.624 5.22463C16.9983 5.00706 16.2086 4.73226 16.2086 3.68617C16.2086 2.45844 17.6393 1.96427 18.8564 1.96424Z" fill="var(--fill-0, #0066B3)"/>
<path d="M10.8503 3.26947C11.4595 3.26953 11.8506 3.71638 11.8507 4.35132C11.8507 5.20165 11.2169 6.10822 10.3484 6.10822C9.71342 6.1082 9.33451 5.63542 9.33443 5.00044C9.33443 4.18954 9.95904 3.26947 10.8503 3.26947Z" fill="var(--fill-0, #0066B3)"/>
</g>
</svg>
