<svg preserveAspectRatio="xMidYMid meet" viewBox="0 0 63.9078 43.877" fill="none" xmlns="http://www.w3.org/2000/svg">
<g id="Ebene 2">
<path id="Vector" d="M63.9078 5.44998V38.3691C63.8797 38.506 63.8519 38.6431 63.8234 38.78C63.2039 41.7869 60.6185 43.8742 57.4915 43.8748C40.4988 43.8777 23.5058 43.8777 6.51252 43.8748C5.64657 43.8748 4.80267 43.742 4.00702 43.4031C1.90669 42.5101 0.601372 40.9669 0.127816 38.7637C0.0687009 38.4897 0.0421792 38.2087 0 37.9312V5.85716C0.0252436 5.67267 0.0463332 5.48756 0.0760503 5.3037C0.505191 2.65921 2.51637 0.626434 5.20849 0.121841C5.48361 0.0704738 5.76321 0.0400918 6.03929 0H57.9644C58.1999 0.0313217 58.4379 0.0529337 58.6706 0.0999162C61.1949 0.608894 62.8728 2.05971 63.6768 4.46397C63.7835 4.78314 63.8321 5.12078 63.9078 5.44998ZM32.0178 4.44549H19.4436C15.1514 4.44549 10.8589 4.44685 6.56621 4.44956C6.32731 4.44559 6.08919 4.47727 5.86003 4.54353C5.11199 4.77812 4.66239 5.45185 4.66239 6.30099C4.66239 16.7048 4.66239 27.1085 4.66239 37.5121C4.66093 37.6685 4.67689 37.8246 4.71 37.9776C4.90748 38.8449 5.5865 39.3682 6.50198 39.3682H57.5004C57.5432 39.3682 57.5857 39.3682 57.6282 39.3682C58.2299 39.3388 58.7 39.0863 59.0131 38.5755C59.2282 38.2247 59.2834 37.8372 59.2834 37.4329C59.2813 27.0813 59.2807 16.7298 59.2815 6.37835C59.2815 6.28439 59.2841 6.19042 59.277 6.09646C59.2425 5.65106 59.092 5.25234 58.7709 4.92596C58.4098 4.55919 57.957 4.44267 57.4512 4.44298C48.974 4.44612 40.4962 4.44695 32.0178 4.44549Z" fill="var(--fill-0, black)"/>
<path id="Vector_2" d="M34.3241 36.2994V7.59433C34.3749 7.59088 34.4199 7.58493 34.4666 7.58493C38.5295 7.58493 42.5928 7.57648 46.6557 7.59214C48.0128 7.59715 49.3507 7.77599 50.6343 8.24206C52.7845 9.0226 54.0853 10.5307 54.6046 12.7051C54.8359 13.6667 54.9199 14.6566 54.8538 15.6424C54.7877 16.6206 54.4026 17.4904 53.8166 18.2778C53.0727 19.2773 52.1083 20.0319 51.0411 20.6714C50.7417 20.8506 50.4298 21.0091 50.1234 21.1773C50.0748 21.2039 50.0275 21.2315 49.9563 21.2713C50.326 21.3947 50.6688 21.499 51.0047 21.6227C52.1045 22.0299 53.1232 22.5705 53.9872 23.3651C55.1308 24.4167 55.7739 25.7079 55.9166 27.2387C56.055 28.7361 55.8527 30.186 55.1932 31.5551C54.4368 33.1212 53.2098 34.2331 51.6549 35.0177C50.4726 35.6128 49.2143 35.9574 47.9055 36.1453C47.0609 36.2659 46.2119 36.3019 45.3584 36.3019C41.7534 36.2994 38.1483 36.2994 34.5433 36.3019L34.3241 36.2994ZM41.2843 31.6456C41.3482 31.6487 41.3971 31.6531 41.4441 31.6531C42.2749 31.6531 43.1057 31.6531 43.9365 31.6488C44.6906 31.6447 45.4338 31.5639 46.1525 31.3258C47.2772 30.9534 48.0576 30.2443 48.3685 29.0982C48.5755 28.3349 48.5743 27.5606 48.4199 26.7876C48.1962 25.6679 47.5214 24.9381 46.4193 24.5813C45.73 24.358 45.0181 24.2788 44.2972 24.2712C43.3444 24.2615 42.3912 24.265 41.4383 24.2634C41.3878 24.2634 41.3373 24.269 41.2846 24.2719L41.2843 31.6456ZM41.2843 18.9475C41.3287 18.9506 41.3546 18.9541 41.3801 18.9541C42.2378 18.9541 43.0958 18.9732 43.9521 18.9441C44.4038 18.9293 44.8526 18.8668 45.2907 18.7577C46.394 18.4792 47.191 17.8409 47.5348 16.7428C47.7661 16.0039 47.7792 15.2509 47.6009 14.5001C47.3824 13.5818 46.8197 12.93 45.955 12.5247C45.3469 12.2422 44.6863 12.0848 44.0138 12.0624C43.1363 12.0282 42.2563 12.0361 41.3789 12.0267C41.3466 12.0288 41.3146 12.0333 41.283 12.0401L41.2843 18.9475Z" fill="var(--fill-0, black)"/>
<path id="Vector_3" d="M8.80795 7.58288H8.95558C12.5929 7.58288 16.2302 7.57161 19.8675 7.58884C21.6729 7.59729 23.4246 7.90487 25.069 8.67726C27.0044 9.58559 28.4094 11.022 29.3891 12.8759C30.0953 14.2118 30.5257 15.6373 30.7951 17.1119C31.2 19.3279 31.252 21.5618 31.1268 23.8038C31.0376 25.3965 30.8226 26.9701 30.3832 28.5089C29.9298 30.0966 29.2517 31.5766 28.1685 32.856C26.8584 34.4046 25.1706 35.3583 23.2 35.8607C21.9857 36.1699 20.7507 36.2949 19.501 36.2964C15.9969 36.3006 12.4927 36.3006 8.98817 36.2964H8.80763L8.80795 7.58288ZM15.833 31.6379C15.8626 31.6435 15.8925 31.6473 15.9225 31.6492C16.8811 31.6448 17.8397 31.6743 18.7983 31.6267C20.2938 31.5518 21.5167 30.9248 22.4286 29.7474C23.0127 28.9931 23.3844 28.1381 23.6473 27.2341C24.0573 25.8246 24.2139 24.3788 24.2203 22.9196C24.225 21.8129 24.2018 20.7071 24.1509 19.6023C24.0985 18.4806 23.9432 17.3697 23.6131 16.2891C23.3032 15.2752 22.8348 14.3471 22.0378 13.6104C21.023 12.6708 19.7726 12.2661 18.4181 12.1568C17.5975 12.0904 16.7699 12.1092 15.9455 12.0907C15.908 12.093 15.8708 12.0983 15.8343 12.1067L15.833 31.6379Z" fill="var(--fill-0, black)"/>
</g>
</svg>
