<svg preserveAspectRatio="xMidYMid meet" viewBox="0 0 117.224 33.4927" fill="none" xmlns="http://www.w3.org/2000/svg">
<g id="Ebene_x0020_1">
<path id="path2006" fill-rule="evenodd" clip-rule="evenodd" d="M80.0527 12.4216C80.0527 16.1512 77.6788 21.0512 75.963 24.2886C73.2681 29.3829 69.6223 32.4355 63.6942 32.7955C58.4544 33.1137 46.6121 34.0041 48.6868 25.3609C49.5864 21.6191 51.5856 18.3225 52.813 14.7092C56.9372 6.65402 67.316 5.11849 75.5614 7.13152C78.3524 8.12548 79.8379 9.45573 80.0527 12.4216ZM66.2136 12.7791C61.9755 12.7791 61.4593 18.5703 60.6635 21.6793C60.4638 22.8543 59.1198 26.7906 61.2843 26.7906C66.38 27.7938 66.8539 22.3227 67.7109 18.6768C68.026 17.3355 68.6509 15.0851 68.3681 13.7084C68.3681 12.6844 66.9094 12.8475 66.2136 12.7791ZM37.0388 13.0293C36.5159 22.8375 29.4785 22.0742 21.1185 22.0367C17.9414 22.0239 14.6924 21.8223 11.5517 21.8223C10.3928 22.973 13.7481 26.4631 14.692 27.0408C17.9142 29.0058 21.9571 28.1621 24.5509 25.611C25.9444 25.611 40.9018 23.6972 35.7244 28.7565C33.2184 30.9392 29.6731 32.2283 26.4495 32.9744C16.193 35.3487 -5.96222 29.5769 1.5103 15.424C6.61846 7.19421 17.6825 2.694 26.8147 0.375992C27.6651 0.209492 28.5051 0.0813318 29.3708 0.0185122C35.8682 -0.456388 37.0388 8.32158 37.0388 13.0293ZM27.5086 12.2429C27.5086 11.3558 27.5457 10.4178 27.2529 9.5621C26.2501 5.60702 15.7278 14.0528 14.473 15.2811C14.3154 15.5917 14.4345 15.4955 14.6555 15.6029C18.1476 15.6029 21.6478 15.567 25.1351 15.567C27.4317 15.196 27.5086 14.5118 27.5086 12.2429ZM47.774 17.2828C46.9824 18.8436 47.1592 20.8912 45.5466 22.0724C43.3413 23.6876 37.7861 23.692 39.0106 19.7849C40.1697 16.0705 42.3612 14.4907 46.35 15.4598C47.3229 15.7788 47.5527 16.4097 47.774 17.2828ZM117.224 12.4573C117.224 13.4572 117.01 14.4881 116.786 15.4598C115.468 21.163 113.343 26.5889 111.455 32.0808C109.723 33.7762 106.122 32.853 104.262 31.759C103.331 30.8478 105.645 26.1985 106.014 25.0749C106.581 23.3492 109.68 16.9858 107.073 15.7102C106.235 15.7102 105.568 15.8176 104.736 16.0318C96.9365 18.7049 91.4004 26.477 85.7854 31.9735C83.3517 33.1732 81.604 32.8662 79.2128 31.6876C78.9756 31.4554 79.0905 31.0864 79.1397 30.7939C80.9491 23.3962 83.8107 16.0616 86.9172 9.09743C87.406 7.67555 92.4279 8.20241 93.6725 8.81153C93.6725 10.3864 93.5037 13.0294 95.8268 13.0294C101.039 12.467 113.809 1.39244 117.042 10.8847C117.133 11.4207 117.224 11.9065 117.224 12.4573Z" fill="var(--fill-0, black)"/>
</g>
</svg>
