<svg preserveAspectRatio="xMidYMid meet" viewBox="0 0 129 48" fill="none" xmlns="http://www.w3.org/2000/svg">
<g id="Frame" clip-path="url(#clip0_2049_27161)">
<g id="Vector">
</g>
<g id="Gruppe 60757">
<path id="Pfad 48440" d="M46.0587 17.6939C45.2792 20.9674 43.3823 23.8603 40.7 25.8668C38.0177 27.8732 34.7207 28.8652 31.3858 28.6694C28.051 28.4735 24.8907 27.1022 22.4578 24.7953C20.0249 22.4885 18.4744 19.393 18.0774 16.0505C17.6805 12.708 18.4625 9.3312 20.2866 6.51099C22.1106 3.69078 24.8606 1.60671 28.0554 0.623396C31.2502 -0.359917 34.6864 -0.179858 37.7628 1.13207C40.8392 2.444 43.3599 4.80426 44.8838 7.79991C45.3785 8.88743 45.6286 10.0717 45.6162 11.2679C45.582 13.1065 44.8715 14.8667 43.6226 16.2074C42.3736 17.548 40.6752 18.3736 38.8566 18.5239C38.7738 18.5353 38.6896 18.5271 38.6105 18.5001C38.5314 18.4731 38.4596 18.428 38.4007 18.3683C38.3419 18.3086 38.2975 18.2359 38.2713 18.1561C38.245 18.0762 38.2375 17.9912 38.2493 17.9079C38.2937 17.4318 38.3909 16.9622 38.539 16.5079L40.7638 6.55391H37.3641L36.8799 8.51991C36.3838 7.71147 35.6896 7.04527 34.8641 6.58537C34.0387 6.12547 33.1096 5.88735 32.1664 5.89391C27.5502 5.90191 23.8152 10.3679 23.8152 15.7819C23.7769 16.6447 23.9103 17.5064 24.2075 18.3165C24.5047 19.1265 24.9597 19.8684 25.5458 20.4985C26.1319 21.1286 26.8371 21.6342 27.62 21.9855C28.4029 22.3368 29.2476 22.5266 30.1044 22.5439C30.8972 22.4988 31.6716 22.2853 32.3768 21.9176C33.0821 21.5498 33.7022 21.036 34.1967 20.4099C34.2051 20.7004 34.2706 20.9864 34.3893 21.2512C34.5081 21.5161 34.6777 21.7546 34.8884 21.9531C35.0992 22.1515 35.3468 22.3059 35.6171 22.4073C35.8874 22.5087 36.1749 22.5551 36.4631 22.5439C40.1473 22.1807 43.5667 20.4524 46.0587 17.6939ZM35.582 13.1999C35.6372 14.4972 35.2032 15.7675 34.3671 16.7555C33.531 17.7435 32.3548 18.376 31.0749 18.5259C30.6487 18.5311 30.2263 18.4453 29.8354 18.2742C29.4445 18.1031 29.094 17.8506 28.8068 17.5332C28.5196 17.2159 28.3023 16.8409 28.1692 16.4328C28.0361 16.0248 27.9902 15.5931 28.0345 15.1659C27.9936 13.8743 28.44 12.6152 29.2837 11.6421C30.1274 10.669 31.3057 10.0543 32.5812 9.92191C32.9985 9.91673 33.4122 10 33.7954 10.1664C34.1787 10.3327 34.523 10.5784 34.8059 10.8875C35.0889 11.1966 35.3042 11.5622 35.4379 11.9606C35.5716 12.3589 35.6207 12.7812 35.582 13.1999ZM55.2793 42.7439L54.3247 47.3719C52.7047 47.771 51.0446 47.9817 49.377 47.9999C42.5757 47.9999 38.678 43.9359 38.678 38.0719C38.6494 36.2845 38.9717 34.509 39.6266 32.8476C40.2814 31.1862 41.2558 29.6717 42.4936 28.3912C43.7314 27.1107 45.2083 26.0894 46.8392 25.3863C48.4701 24.6831 50.2229 24.3119 51.9967 24.2939C54.3415 24.2106 56.6849 24.4953 58.9429 25.1379L58.0855 29.2339C56.398 28.7128 54.6384 28.4683 52.8739 28.5099C47.2217 28.5099 44.4988 34.1959 44.4988 38.2259C44.4404 38.9921 44.5512 39.7618 44.8232 40.4797C45.0953 41.1975 45.5218 41.8457 46.0722 42.3776C46.6226 42.9095 47.2831 43.3118 48.0062 43.5557C48.7293 43.7995 49.497 43.8788 50.2542 43.7879C51.9846 43.812 53.6994 43.4558 55.2793 42.7439ZM75.0877 6.29991H80.8669L70.5271 24.3159L69.9456 25.2859C68.342 28.0859 66.5598 29.9579 63.0768 29.9579C61.9777 29.9697 60.8816 29.842 59.8141 29.5779L60.6576 25.4939C61.2387 25.6598 61.8398 25.744 62.4437 25.7439C63.9917 25.7439 64.8253 24.6219 65.6191 23.1179L66.2006 22.1479L62.7295 6.29991H68.2587L69.6816 16.3479L75.0877 6.29991ZM116.725 31.7219H119.835L120.595 28.2999L126.332 26.7439L125.229 31.7219H129L128.321 35.5719H124.37L123.427 39.9999C123.196 40.9001 123.043 41.8189 122.971 42.7459C122.956 42.9849 122.993 43.2243 123.078 43.4479C123.163 43.6714 123.295 43.8741 123.464 44.0423C123.633 44.2105 123.836 44.3403 124.059 44.423C124.282 44.5057 124.52 44.5394 124.757 44.5219C125.364 44.4703 125.958 44.3148 126.513 44.0619L125.906 47.6959C124.79 47.8821 123.663 47.9837 122.532 47.9999C121.884 48.088 121.224 48.0297 120.601 47.8293C119.978 47.6289 119.407 47.2913 118.93 46.841C118.452 46.3907 118.08 45.839 117.84 45.2259C117.6 44.6127 117.498 43.9535 117.543 43.2959C117.579 42.1915 117.742 41.0949 118.027 40.0279L118.968 35.5719H116.06L116.725 31.7219ZM111.152 25.0939H116.653L115.81 29.1239H110.309L111.152 25.0939ZM109.763 31.7219H115.264L112.002 47.6339H106.494L109.763 31.7219ZM99.2306 47.6339L99.6592 45.0959C99.0292 46.046 98.1637 46.8137 97.1487 47.3231C96.1336 47.8324 95.0041 48.0657 93.8721 47.9999C93.0575 47.9622 92.2585 47.7616 91.5215 47.4099C90.7845 47.0582 90.1243 46.5624 89.5791 45.9512C89.034 45.3401 88.6148 44.6258 88.3461 43.85C88.0773 43.0741 87.9643 42.2522 88.0135 41.4319C88.0135 36.2099 90.6114 31.3559 95.9877 31.3559C97.083 31.2621 98.182 31.4887 99.1528 32.0083C100.124 32.528 100.925 33.3188 101.461 34.2859L103.424 24.7279H108.783L104.553 45.2479C104.403 46.0371 104.293 46.8335 104.222 47.6339H99.2306ZM96.2536 43.7839C98.8336 43.7839 100.358 40.9139 100.358 38.8059C100.358 37.2179 99.564 35.5719 97.76 35.5719C97.1675 35.6227 96.5908 35.7911 96.0633 36.0675C95.5357 36.344 95.0676 36.7229 94.6861 37.1825C94.3046 37.6421 94.0171 38.1733 93.8403 38.7454C93.6634 39.3175 93.6007 39.9193 93.6558 40.5159C93.6399 42.4719 94.5092 43.7859 96.2378 43.7859L96.2536 43.7839ZM84.4352 43.2339L83.7426 47.1119C81.9543 47.6686 80.0968 47.9676 78.2254 47.9999C72.9582 47.9999 70.1262 44.7319 70.1262 40.7299C70.0943 39.4794 70.3173 38.2356 70.7814 37.0754C71.2455 35.9152 71.9408 34.8633 72.8244 33.9847C73.7079 33.1061 74.7609 32.4195 75.9183 31.9673C77.0757 31.5152 78.3128 31.3071 79.5531 31.3559C83.7009 31.3559 86.8108 33.4639 86.8108 38.2879C86.7678 39.2945 86.6349 40.2953 86.4139 41.2779H75.2544C75.3239 42.9879 76.1654 44.3339 79.4975 44.3339C81.1959 44.3135 82.8717 43.939 84.4194 43.2339H84.4352ZM75.6156 38.1639H82.2919C82.2919 36.4559 81.627 35.0219 79.6226 35.0219C78.6948 34.9954 77.7866 35.2941 77.0529 35.8671C76.3193 36.4401 75.8057 37.2518 75.5997 38.1639H75.6156ZM64.2259 31.7219L63.6186 34.9899C64.0367 33.9899 64.717 33.1233 65.5864 32.4832C66.4559 31.843 67.4819 31.4533 68.5544 31.3559C69.3374 31.3409 70.1161 31.4766 70.8486 31.7559L69.6003 36.5999C68.866 36.0863 67.9759 35.8491 67.0857 35.9299C64.7895 35.9299 63.4221 37.9439 63.0351 40.2979L61.4871 47.6279H56.0533L59.3696 31.7159L64.2259 31.7219ZM47.6901 17.9999C49.0825 18.6059 50.5832 18.9183 52.0999 18.9179C52.9851 18.9179 55.1542 18.8259 55.1542 17.5179C55.1542 15.2579 48.6586 16.4179 48.6586 11.1619C48.6586 7.43591 52.9573 5.93991 56.5971 5.93991C58.3804 5.99337 60.146 6.31284 61.8364 6.88791L60.6893 10.4879C59.3167 9.89558 57.8381 9.59335 56.345 9.59991C55.1284 9.59991 53.8007 9.87791 53.8007 10.9779C53.8007 12.7479 60.602 12.6279 60.602 16.6259C60.602 20.5639 57.3135 22.5179 53.2192 22.5819C50.9856 22.6052 48.7588 22.3267 46.5986 21.7539L47.6901 17.9999ZM14.289 17.8139L13.5984 21.6919C11.8151 22.2471 9.96312 22.5461 8.09702 22.5799C2.84771 22.5779 -0.000208638 19.3119 -0.000208638 15.3079C-0.0320677 14.0572 0.190919 12.8133 0.654971 11.6529C1.11902 10.4925 1.81428 9.44031 2.69778 8.56139C3.58128 7.68247 4.63425 6.99548 5.79163 6.54287C6.949 6.09026 8.18618 5.88164 9.42671 5.92991C13.5746 5.92991 16.6845 8.03791 16.6845 12.8619C16.6392 13.8711 16.5098 14.8746 16.2975 15.8619H5.14193C5.1975 17.5719 6.04096 18.9159 9.37313 18.9159C11.0696 18.894 12.7433 18.5189 14.289 17.8139ZM5.47336 12.7419H12.1516C12.1516 11.0319 11.4887 9.59391 9.49618 9.59391C8.568 9.56955 7.66009 9.86983 6.92674 10.4437C6.19339 11.0176 5.67984 11.8296 5.47336 12.7419Z" fill="var(--fill-0, black)"/>
</g>
</g>
<defs>
<clipPath id="clip0_2049_27161">
<rect width="129" height="48" fill="white"/>
</clipPath>
</defs>
</svg>
