<svg preserveAspectRatio="xMidYMid meet" viewBox="0 0 82 32" fill="none" xmlns="http://www.w3.org/2000/svg">
<g id="Frame" clip-path="url(#clip0_2049_47524)">
<path id="Vector" d="M60.2622 15.6313C60.2622 10.2713 63.9923 5.93525 68.6069 5.93525C70.1383 5.98573 71.6248 6.46218 72.898 7.31057C74.1711 8.15897 75.1799 9.34537 75.81 10.7353H82.0002C80.1029 4.75125 74.8292 0.43125 68.6069 0.43125C60.7927 0.43125 54.4578 7.24725 54.4578 15.6313C54.4578 19.4393 55.7441 22.8953 57.8825 25.5513L62.6578 22.4313C61.0864 20.5184 60.2386 18.1178 60.2622 15.6472V15.6313Z" fill="var(--fill-0, black)"/>
<path id="Vector_2" d="M69.4586 20.9126H74.8127C74.8127 20.9126 72.7225 27.7926 65.9213 25.4406L60.8405 28.8006C64.0401 30.7686 72.0633 34.2086 78.0123 24.1606V30.8006H81.9515V16.6406H69.4425V20.9126H69.4586Z" fill="var(--fill-0, black)"/>
<path id="Vector_3" d="M54.6989 0.592563H47.9139L40.5339 21.4726L38.1542 14.7046H31.4495L37.2378 30.8006H43.8299L54.6989 0.592563ZM33.1539 0.592563H26.3688L29.7452 9.96856H36.4821L33.1699 0.592563H33.1539ZM23.1048 0.576563H0.530714V6.56056H23.1048V0.576563ZM23.1048 12.7526H0.530714V18.7366H23.1048V12.7526ZM23.1048 24.9286H0.530714V30.8966H23.1048V24.9286Z" fill="var(--fill-0, black)"/>
</g>
<defs>
<clipPath id="clip0_2049_47524">
<rect width="82" height="32" fill="white"/>
</clipPath>
</defs>
</svg>
