<svg preserveAspectRatio="xMidYMid meet" viewBox="0 0 72 60" fill="none" xmlns="http://www.w3.org/2000/svg">
<g id="Frame" clip-path="url(#clip0_2049_35546)">
<path id="Vector" d="M18.4034 34.2809V21.7352C18.4135 21.0274 18.2569 20.3274 17.9465 19.6938C17.6362 19.0601 17.1811 18.5111 16.6194 18.0926C15.5637 17.15 14.1998 16.6419 12.7949 16.6678H12.169C11.4398 16.666 10.7178 16.8137 10.046 17.1019C9.37423 17.3902 8.76655 17.8132 8.2593 18.3456C7.12723 19.4234 6.5386 20.5136 6.49374 22.1398V33.7427C6.5386 35.3682 7.12723 36.4587 8.2593 37.5365C8.76643 38.0691 9.37409 38.4922 10.0459 38.7805C10.7177 39.0688 11.4398 39.2163 12.169 39.2143H12.7949C14.2002 39.2334 15.5627 38.7228 16.6194 37.7811C17.7574 36.8482 18.3516 35.8559 18.4024 34.2827L18.4034 34.2809ZM17.6767 43.4117C17.4656 43.5552 17.2634 43.7119 17.0714 43.881L17.0147 43.9265C16.9744 43.9591 16.9333 43.9914 16.8913 44.0237C16.8494 44.056 16.8064 44.0877 16.7623 44.1188C16.7185 44.1503 16.6738 44.1814 16.6281 44.2121C16.5825 44.2427 16.5361 44.2731 16.489 44.3032C16.4427 44.3332 16.3948 44.3627 16.3454 44.3919C16.2961 44.4211 16.2467 44.4498 16.1973 44.4778C16.147 44.5061 16.0962 44.5339 16.0447 44.5612C15.9932 44.5885 15.941 44.6153 15.8879 44.6414C15.8348 44.6678 15.7812 44.6935 15.7269 44.7185C15.6727 44.7434 15.6176 44.768 15.5618 44.7923L15.3949 44.863C15.3392 44.8865 15.2837 44.908 15.2283 44.9273C15.1729 44.9478 15.1176 44.9675 15.0625 44.9863C15.0073 45.0052 14.9524 45.0231 14.8977 45.04C14.8427 45.057 14.7882 45.0732 14.7339 45.0888C14.6797 45.1043 14.6254 45.1188 14.5715 45.1323C14.5177 45.1457 14.4641 45.1588 14.4106 45.1708C14.357 45.1828 14.3042 45.1937 14.2517 45.204C14.1992 45.2142 14.1474 45.2248 14.0949 45.2333C13.4438 45.3444 12.785 45.4016 12.1249 45.4043H11.6228C8.34228 45.3245 5.60622 44.2301 3.41463 42.1212C2.34246 41.1063 1.48631 39.8789 0.899016 38.5147C0.311725 37.1505 0.00575765 35.6785 0 34.1894L0 21.6928C0.0057606 20.2038 0.311696 18.7318 0.898925 17.3677C1.48615 16.0035 2.34222 14.7762 3.41428 13.7613C5.60564 11.6527 8.3417 10.5583 11.6225 10.4782H12.2688C12.8503 10.4858 13.4308 10.5286 14.0073 10.6064L14.1637 10.6333C14.2176 10.6425 14.2718 10.6524 14.3264 10.663C14.381 10.6736 14.436 10.6852 14.4909 10.6983C14.5458 10.7114 14.6015 10.7238 14.6571 10.7383C14.7127 10.7527 14.7687 10.7672 14.8247 10.7831C14.8806 10.799 14.937 10.8156 14.9933 10.833C15.0496 10.8503 15.1063 10.8683 15.163 10.8881C15.2196 10.9079 15.2767 10.9277 15.3333 10.9485C15.39 10.9694 15.4467 10.9913 15.502 11.0135C15.5572 11.0358 15.6125 11.0588 15.6668 11.0821C15.721 11.1054 15.7749 11.1294 15.8277 11.1528C15.8806 11.1761 15.932 11.2022 15.9845 11.2277C16.037 11.2531 16.0868 11.2793 16.1372 11.3054C16.1876 11.3316 16.2366 11.3588 16.2853 11.3863C16.334 11.4139 16.3816 11.4415 16.4285 11.4697L16.4717 11.4959L16.5342 11.5355L16.5951 11.5761L16.6559 11.6164L16.7147 11.6577L16.7734 11.6991L16.8301 11.7408L16.8871 11.7825L16.9421 11.8249L16.9967 11.8669L17.0492 11.9097L17.102 11.9524L17.1524 11.9955L17.2028 12.0387L17.2512 12.0821L17.2995 12.1256L17.3454 12.1694L17.3913 12.2132C17.4209 12.2415 17.4526 12.2674 17.4862 12.2906C17.5126 12.3078 17.5401 12.3232 17.5686 12.3366C17.6437 12.3679 17.7242 12.3841 17.8054 12.3843C17.8866 12.3844 17.967 12.368 18.0418 12.3358C18.0784 12.3205 18.1133 12.3014 18.1461 12.279C18.1784 12.2568 18.2086 12.2316 18.2362 12.2037C18.2638 12.1758 18.2886 12.1451 18.3102 12.1122C18.3322 12.0788 18.351 12.0432 18.3662 12.0061C18.3816 11.9688 18.3932 11.93 18.401 11.8902C18.41 11.8494 18.4149 11.8077 18.4156 11.7659C18.4114 11.3542 18.402 10.7937 18.8596 10.657C19.1481 10.6032 19.4425 10.5895 19.7347 10.6163H23.8833C24.3061 10.6163 24.9455 10.5103 25.1204 11.0372C25.2507 11.4287 25.1628 12.2454 25.1628 12.6627V39.3143C25.1628 41.6819 25.2563 44.0728 24.9935 46.432C24.2633 53.0025 21.0298 58.5862 14.1908 59.8109C10.0502 60.553 5.92458 59.0533 2.72725 56.3719C2.33645 56.0444 1.52634 55.4945 1.55903 54.9312C1.57657 54.7325 1.65978 54.5457 1.79511 54.4012C1.79511 54.4012 4.44552 51.5516 4.63953 51.3032C4.82728 51.0912 5.09152 50.7858 5.38497 50.7869C5.8022 50.7869 6.23819 51.1862 6.99615 51.6378C8.28781 52.4071 9.67334 53.1131 11.1441 53.3375C12.0976 53.462 13.0665 53.3653 13.978 53.0548C17.4476 51.9127 18.4079 47.4617 18.6071 43.9732V43.9138C18.6083 43.8931 18.6083 43.8723 18.6071 43.8516C18.6052 43.8313 18.6022 43.8112 18.5981 43.7912C18.5901 43.7521 18.5784 43.7139 18.5633 43.6771C18.5479 43.641 18.5294 43.6063 18.5081 43.5735C18.4973 43.5587 18.4858 43.5417 18.4733 43.5269C18.4608 43.512 18.4483 43.4972 18.4347 43.4838C18.4212 43.47 18.4071 43.4569 18.3923 43.4445C18.3623 43.4198 18.3304 43.3976 18.2967 43.3785C18.2796 43.3689 18.2619 43.3608 18.2445 43.353C18.2266 43.3452 18.2082 43.3384 18.1896 43.3325C18.1707 43.3265 18.1516 43.3216 18.1322 43.3177C18.1126 43.3136 18.0927 43.3105 18.0728 43.3085C18.0321 43.3043 17.9911 43.3043 17.9504 43.3085C17.9305 43.3105 17.9108 43.3136 17.8913 43.3177C17.8719 43.3216 17.8528 43.3266 17.8339 43.3325C17.8152 43.3384 17.7969 43.3452 17.779 43.353C17.7448 43.3702 17.7115 43.3889 17.6792 43.4092L17.6767 43.4117Z" fill="var(--fill-0, black)"/>
<path id="Vector_2" d="M72 44.5983V40.0101C72.0076 39.9035 71.993 39.7964 71.957 39.6959C71.9211 39.5955 71.8646 39.5038 71.7914 39.4271C71.6386 39.2983 71.4433 39.2333 71.2452 39.2454H58.8154C58.5901 39.2644 58.365 39.2073 58.1749 39.0829C58.112 39.0311 58.0616 38.9654 58.0274 38.8908C57.9931 38.8163 57.9761 38.7347 57.9775 38.6525C57.9809 38.4559 58.0362 38.2638 58.1374 38.0963L71.758 11.9694C71.8 11.8833 71.8349 11.7938 71.8623 11.7019C71.8902 11.6154 71.9061 11.5254 71.9096 11.4344C71.8971 11.0393 71.6208 10.8354 71.0807 10.8227H48.7665C48.6635 10.8034 48.5574 10.8098 48.4574 10.8414C48.3574 10.873 48.2664 10.9288 48.1923 11.004C48.1181 11.0792 48.0631 11.1716 48.0319 11.2732C48.0007 11.3749 47.9942 11.4827 48.0131 11.5874V16.177C47.9942 16.2817 48.0007 16.3895 48.0319 16.4912C48.0631 16.5928 48.1181 16.6852 48.1923 16.7604C48.2664 16.8356 48.3574 16.8914 48.4574 16.923C48.5574 16.9546 48.6635 16.961 48.7665 16.9417H60.421C60.6388 16.9275 60.8555 16.9821 61.0416 17.0979C61.1104 17.151 61.1654 17.2205 61.2018 17.3002C61.2381 17.3799 61.2548 17.4674 61.2502 17.5551C61.2467 17.6463 61.2308 17.7366 61.2029 17.8234C61.1755 17.9154 61.1406 18.005 61.0986 18.0912L47.3348 44.2163C47.2928 44.3024 47.2579 44.3919 47.2305 44.4838C47.2026 44.5703 47.1867 44.6604 47.1832 44.7513C47.1957 45.1464 47.472 45.3503 48.0121 45.363H71.2452C71.3482 45.3824 71.4543 45.376 71.5544 45.3445C71.6545 45.3129 71.7455 45.2571 71.8197 45.1819C71.8939 45.1067 71.9489 45.0142 71.9802 44.9126C72.0114 44.8109 72.0178 44.7031 71.999 44.5983H72Z" fill="var(--fill-0, black)"/>
<path id="Vector_3" d="M33.403 6.3833C33.4085 6.59622 33.4871 6.80047 33.6251 6.96071C33.8146 7.12597 34.0593 7.21109 34.3087 7.19853H39.0059C39.2554 7.21107 39.5002 7.12596 39.6898 6.96071C39.762 6.88545 39.8187 6.79629 39.8564 6.69847C39.8942 6.60065 39.9124 6.49614 39.9099 6.39108C39.9099 6.39108 39.9099 6.25821 39.9099 6.25185V0.948096C39.9246 0.691556 39.8428 0.438936 39.6811 0.241353C39.4916 0.0760936 39.247 -0.00902169 38.9976 0.00353371L38.6245 0C38.4724 -0.00747066 38.3205 0.020701 38.1808 0.0823396C38.0411 0.143978 37.9171 0.237435 37.8186 0.355492L33.8786 4.82811L33.6898 5.05462C33.5016 5.24835 33.3962 5.50965 33.3964 5.78186V6.25185C33.3964 6.29001 33.403 6.3833 33.403 6.3833Z" fill="var(--fill-0, black)"/>
<path id="Vector_4" d="M39.8779 11.6121C39.8941 11.391 39.8268 11.1719 39.6898 10.9994C39.6056 10.9238 39.507 10.8666 39.4001 10.8314C39.2932 10.7961 39.1804 10.7835 39.0685 10.7944H34.1786C34.0644 10.7858 33.9496 10.8026 33.8423 10.8435C33.735 10.8845 33.6378 10.9486 33.5573 11.0316C33.4258 11.1948 33.3574 11.4013 33.3651 11.6121V30.4203L33.3706 44.5446C33.3541 44.7657 33.4214 44.9849 33.5587 45.1573C33.6431 45.2327 33.7417 45.2898 33.8486 45.325C33.9554 45.3602 34.0682 45.3729 34.18 45.3623H39.0689C39.1831 45.3709 39.2979 45.3541 39.4052 45.3132C39.5125 45.2723 39.6097 45.2081 39.6902 45.1252C39.8206 44.9615 39.8874 44.755 39.8779 44.5446V11.6104V11.6121Z" fill="var(--fill-0, black)"/>
</g>
<defs>
<clipPath id="clip0_2049_35546">
<rect width="72" height="60" fill="white"/>
</clipPath>
</defs>
</svg>
