<svg preserveAspectRatio="xMidYMid meet" viewBox="0 0 180.665 25.0091" fill="none" xmlns="http://www.w3.org/2000/svg">
<g id="Union">
<path d="M168.22 14.178V24.6486H163.405V5.87306H167.498L175.875 16.3681V5.87306H180.665V24.6486H176.597L168.22 14.178Z" fill="var(--fill-0, black)"/>
<path d="M159.713 24.6486H154.898V5.87306H159.713V24.6486Z" fill="var(--fill-0, black)"/>
<path d="M152.117 24.6486H138.324V5.87306H143.114V20.002H152.117V24.6486Z" fill="var(--fill-0, black)"/>
<path fill-rule="evenodd" clip-rule="evenodd" d="M118.964 24.6486V5.87143H128.133C129.336 5.87143 130.38 6.05271 131.262 6.41366C132.144 6.77623 132.874 7.26946 133.452 7.89499C134.03 8.52051 134.46 9.25056 134.741 10.0851C135.022 10.9197 135.162 11.8016 135.162 12.7326C135.162 13.3908 135.085 14.0326 134.933 14.6581C134.782 15.2853 134.553 15.8667 134.248 16.4041C133.944 16.9414 133.558 17.4314 133.093 17.8723C132.627 18.3149 132.082 18.6791 131.456 18.9682L135.525 24.6486H129.771L126.209 19.6182H123.754V24.6486H118.964ZM129.916 10.9769C129.514 10.4951 128.833 10.255 127.87 10.255H123.754V15.2608H127.87C128.352 15.2608 128.762 15.1938 129.098 15.0567C129.434 14.9195 129.707 14.7398 129.916 14.5144C130.125 14.2907 130.277 14.0261 130.374 13.7207C130.47 13.4153 130.517 13.1033 130.517 12.7816C130.517 12.0597 130.316 11.4587 129.916 10.9769Z" fill="var(--fill-0, black)"/>
<path d="M115.709 24.6486H101.289V5.87306H115.709V10.5424H106.104V13.2389H113.999V17.5947H106.104V20.002H115.709V24.6486Z" fill="var(--fill-0, black)"/>
<path fill-rule="evenodd" clip-rule="evenodd" d="M92.4926 24.6486H82.3323V5.87143H91.6727C92.6837 5.87143 93.5705 6.00045 94.3332 6.25687C95.0943 6.51328 95.7296 6.87422 96.2343 7.33969C96.739 7.80679 97.1211 8.35555 97.3776 8.98924C97.634 9.62293 97.763 10.3089 97.763 11.0471C97.763 12.0107 97.5589 12.8126 97.1489 13.4545C96.7406 14.0963 96.1821 14.6092 95.4765 14.9946C96.4385 15.3637 97.2012 15.9059 97.763 16.6196C98.3248 17.3334 98.6058 18.2447 98.6058 19.352C98.6058 20.1213 98.4653 20.8317 98.1844 21.4817C97.9035 22.1318 97.4984 22.6936 96.9693 23.1672C96.4401 23.6409 95.7982 24.0067 95.0437 24.2631C94.2891 24.5195 93.4399 24.6486 92.4926 24.6486ZM92.5285 10.6649C92.2803 10.3922 91.8981 10.255 91.3853 10.255H87.1487V13.2405H91.1207C91.7773 13.2405 92.2395 13.1033 92.504 12.8306C92.7686 12.5578 92.9009 12.1969 92.9009 11.7478C92.9009 11.2986 92.7768 10.9377 92.5285 10.6649ZM93.3484 17.4395C93.0822 17.1423 92.6216 16.9937 91.9634 16.9937H87.1487V20.2911H91.9634C92.6216 20.2911 93.0838 20.136 93.3484 19.8224C93.613 19.5104 93.7453 19.1054 93.7453 18.6073C93.7453 18.1255 93.613 17.7368 93.3484 17.4395Z" fill="var(--fill-0, black)"/>
<path d="M65.9626 14.178V24.6486H61.1478V5.87306H65.2407L73.6175 16.3681V5.87306H78.4077V24.6486H74.3394L65.9626 14.178Z" fill="var(--fill-0, black)"/>
<path d="M52.4656 4.66938C51.8075 4.66938 51.2538 4.44072 50.8047 3.98342C50.3555 3.52612 50.1301 2.96919 50.1301 2.31101C50.1301 2.00559 50.1906 1.71325 50.3114 1.43233C50.4323 1.15142 50.5956 0.903171 50.8047 0.685952C51.0137 0.468734 51.262 0.300512 51.551 0.179654C51.8401 0.0604291 52.1439 0 52.4656 0C52.7874 0 53.0879 0.0587959 53.3688 0.179654C53.6497 0.300512 53.8947 0.468734 54.1038 0.685952C54.3112 0.903171 54.4761 1.15142 54.597 1.43233C54.7162 1.71325 54.7767 2.00559 54.7767 2.31101C54.7767 2.63275 54.7179 2.93653 54.597 3.22561C54.4761 3.51469 54.3128 3.76621 54.1038 3.98342C53.8947 4.19901 53.6497 4.36723 53.3688 4.48809C53.0879 4.60895 52.7858 4.66938 52.4656 4.66938Z" fill="var(--fill-0, black)"/>
<path d="M46.3999 4.66938C45.7417 4.66938 45.188 4.44072 44.7389 3.98342C44.2881 3.52612 44.0644 2.96919 44.066 2.31101C44.066 2.00559 44.1248 1.71325 44.2457 1.43233C44.3649 1.15142 44.5298 0.903171 44.7389 0.685952C44.9479 0.468734 45.1962 0.300512 45.4853 0.179654C45.7743 0.0604291 46.0781 0 46.3999 0C46.72 0 47.0205 0.0604291 47.303 0.179654C47.584 0.300512 47.8289 0.468734 48.038 0.685952C48.247 0.903171 48.4104 1.15142 48.5312 1.43233C48.6521 1.71325 48.7125 2.00559 48.7125 2.31101C48.7125 2.63275 48.6521 2.93653 48.5312 3.22561C48.4104 3.51469 48.247 3.76621 48.038 3.98342C47.8289 4.19901 47.584 4.36723 47.303 4.48809C47.0221 4.60895 46.72 4.66938 46.3999 4.66938Z" fill="var(--fill-0, black)"/>
<path d="M53.2594 16.1525V5.87306H58.048V16.44C58.048 17.6437 57.8602 18.7657 57.4829 19.8093C57.1056 20.8513 56.552 21.7578 55.8219 22.5286C55.0919 23.2995 54.1887 23.9054 53.114 24.3464C52.0377 24.7874 50.803 25.0079 49.4066 25.0079C47.9955 25.0079 46.751 24.7874 45.6764 24.3464C44.6001 23.9054 43.7018 23.2995 42.9799 22.5286C42.258 21.7594 41.7125 20.853 41.3434 19.8093C40.9743 18.7673 40.7898 17.6437 40.7898 16.44V5.87306H45.6045V16.1525C45.6045 17.5163 45.9262 18.5599 46.5681 19.2818C47.2099 20.0037 48.1572 20.3646 49.4083 20.3646C50.6756 20.3646 51.6343 20.0037 52.2844 19.2818C52.9344 18.5599 53.2594 17.5163 53.2594 16.1525Z" fill="var(--fill-0, black)"/>
<path fill-rule="evenodd" clip-rule="evenodd" d="M22.1694 24.6486V5.87143H31.3399C32.5436 5.87143 33.5856 6.05271 34.4692 6.41366C35.3511 6.77623 36.0812 7.26946 36.6593 7.89499C37.2375 8.52051 37.667 9.25056 37.948 10.0851C38.2289 10.9197 38.3693 11.8016 38.3693 12.7326C38.3693 13.3908 38.2926 14.0326 38.1407 14.6581C37.9888 15.2853 37.7585 15.8667 37.4547 16.4041C37.1493 16.9414 36.7639 17.4314 36.2984 17.8723C35.8329 18.3149 35.2874 18.6791 34.6619 18.9682L38.7303 24.6486H32.9764L29.4144 19.6182H26.9597V24.6486H22.1694ZM33.1218 10.9769C32.72 10.4951 32.039 10.255 31.0754 10.255H26.9597V15.2608H31.0754C31.5572 15.2608 31.9671 15.1938 32.3035 15.0567C32.64 14.9195 32.9127 14.7398 33.1218 14.5144C33.3292 14.2907 33.4827 14.0261 33.5791 13.7207C33.6755 13.4153 33.7228 13.1033 33.7228 12.7816C33.7228 12.0597 33.5236 11.4587 33.1218 10.9769Z" fill="var(--fill-0, black)"/>
<path d="M9.96591 5.5117C10.7025 5.5117 11.4129 5.59173 12.1054 5.74198V10.6204C12.0927 10.6141 12.0802 10.6076 12.0676 10.601C12.0381 10.5858 12.0084 10.5704 11.9764 10.5567C11.3574 10.2921 10.6878 10.1598 9.96591 10.1598C9.25872 10.1598 8.59727 10.2921 7.97991 10.5567C7.36256 10.8213 6.82033 11.1822 6.35486 11.6395C5.88776 12.0968 5.52355 12.6391 5.25897 13.2646C4.99439 13.8901 4.8621 14.5565 4.8621 15.262C4.8621 15.9676 4.99439 16.6339 5.25897 17.2595C5.52518 17.885 5.88939 18.4272 6.35486 18.8845C6.82033 19.3418 7.36256 19.7027 7.97991 19.9673C8.59727 20.2319 9.25872 20.3642 9.96591 20.3642C10.6894 20.3642 11.359 20.2319 11.9764 19.9673C12.5954 19.7027 13.1327 19.3418 13.59 18.8845C14.0473 18.4272 14.4083 17.885 14.6728 17.2595C14.7059 17.181 14.7331 17.1015 14.7604 17.0217C14.7655 17.0068 14.7706 16.9918 14.7757 16.9769H12.1283V13.2826H19.9318V15.2702C19.9302 16.6143 19.6689 17.8752 19.1495 19.0511C18.6269 20.2303 17.9132 21.2625 17.0067 22.1444C16.1003 23.0264 15.042 23.7254 13.8301 24.2382C12.6183 24.7527 11.3296 25.0091 9.96591 25.0091C8.61687 25.0091 7.33806 24.751 6.12621 24.2382C4.91436 23.7254 3.8544 23.0264 2.94796 22.1444C2.04152 21.2625 1.32291 20.2303 0.793745 19.0511C0.264582 17.8719 0 16.6078 0 15.2604C0 13.913 0.264582 12.6489 0.793745 11.4697C1.32454 10.2905 2.04152 9.25994 2.94796 8.37637C3.85603 7.49443 4.91436 6.79704 6.12621 6.28258C7.33806 5.76812 8.6185 5.5117 9.96591 5.5117Z" fill="var(--fill-0, black)"/>
</g>
</svg>
