<svg preserveAspectRatio="xMidYMid meet" viewBox="0 0 118 51" fill="none" xmlns="http://www.w3.org/2000/svg">
<g id="Frame" clip-path="url(#clip0_2049_42711)">
<path id="Subtract" d="M59 0.49707C91.2702 0.49707 118 10.1994 118 24.7598C118 31.6193 112.074 37.3951 102.391 41.5898C101.249 38.0455 97.0806 35.4317 92.1299 35.4316C86.2557 35.4316 81.472 39.1418 81.4717 43.6934C81.4805 44.9207 81.8213 46.1238 82.459 47.1748C74.7028 48.4187 66.8564 49.0243 59 48.9854C26.8193 48.9854 0 39.3203 0 24.7598C0.00035189 10.1994 26.8196 0.497071 59 0.49707ZM12.0947 18.1436C11.9475 18.147 11.8071 18.2068 11.7041 18.3115C11.601 18.4163 11.5439 18.5575 11.5439 18.7041V29.3252C11.544 29.4739 11.6032 29.6165 11.709 29.7217C11.8147 29.8267 11.958 29.8856 12.1074 29.8857H13.7881C13.9377 29.8857 14.0817 29.8269 14.1875 29.7217C14.2932 29.6165 14.3525 29.4738 14.3525 29.3252V25.2451H18.3154V29.3252C18.3155 29.4738 18.3748 29.6166 18.4805 29.7217C18.5863 29.8269 18.7303 29.8857 18.8799 29.8857H20.5605C20.71 29.8857 20.8532 29.8267 20.959 29.7217C21.0648 29.6165 21.1249 29.4739 21.125 29.3252V18.7041C21.1252 18.6272 21.1088 18.5511 21.0781 18.4805C21.0474 18.4098 21.0028 18.3456 20.9463 18.293C20.8899 18.2405 20.8228 18.2006 20.75 18.1748C20.677 18.149 20.5988 18.1383 20.5215 18.1436H18.8672C18.7175 18.1436 18.5736 18.2024 18.4678 18.3076C18.3621 18.4128 18.3028 18.5555 18.3027 18.7041V22.9502H14.3398V18.7041C14.3398 18.5554 14.2796 18.4128 14.1738 18.3076C14.068 18.2026 13.9249 18.1436 13.7754 18.1436H12.0947ZM35.4258 18.1182C35.3507 18.1181 35.2762 18.1323 35.207 18.1611C35.1379 18.19 35.075 18.2329 35.0225 18.2861C34.9699 18.3396 34.928 18.4032 34.9004 18.4727C34.8728 18.5422 34.8596 18.6167 34.8613 18.6914V29.3252C34.8614 29.3988 34.876 29.4721 34.9043 29.54C34.9326 29.6079 34.9741 29.6697 35.0264 29.7217C35.0788 29.7738 35.1415 29.8146 35.21 29.8428C35.2784 29.8709 35.3517 29.8857 35.4258 29.8857H37.0928C37.2424 29.8857 37.3864 29.8269 37.4922 29.7217C37.5979 29.6165 37.6572 29.4739 37.6572 29.3252V25.2578H38.9404L41.3252 29.083C41.4732 29.3155 41.678 29.507 41.9199 29.6406C42.1619 29.7743 42.4341 29.8455 42.7109 29.8477H44.4941C44.5464 29.8482 44.5978 29.8344 44.6426 29.8076C44.6875 29.7807 44.7241 29.7416 44.748 29.6953C44.7719 29.649 44.7824 29.5968 44.7783 29.5449C44.7742 29.4931 44.7555 29.4433 44.7246 29.4014L41.6719 25.0791C42.3922 24.8441 43.0193 24.3882 43.4619 23.7764C43.9045 23.1645 44.14 22.4284 44.1348 21.6748C44.1347 20.7314 43.758 19.8263 43.0869 19.1592C42.4158 18.4921 41.5047 18.1182 40.5557 18.1182H35.4258ZM45.7891 18.1436C45.6394 18.1436 45.4955 18.2024 45.3896 18.3076C45.284 18.4128 45.2246 18.5555 45.2246 18.7041V20.1064C45.228 20.253 45.2891 20.3927 45.3945 20.4951C45.5 20.5976 45.6416 20.6553 45.7891 20.6553H47.9697V29.3252C47.9698 29.3988 47.9844 29.4721 48.0127 29.54C48.041 29.6079 48.0825 29.6697 48.1348 29.7217C48.1872 29.7738 48.2499 29.8146 48.3184 29.8428C48.3868 29.8709 48.4601 29.8857 48.5342 29.8857H50.2012C50.3508 29.8857 50.4948 29.8269 50.6006 29.7217C50.7063 29.6165 50.7656 29.4738 50.7656 29.3252V20.6035H52.9463C53.0937 20.6035 53.2354 20.5468 53.3408 20.4443C53.4463 20.3419 53.5074 20.2022 53.5107 20.0557V18.7041C53.5107 18.5554 53.4505 18.4128 53.3447 18.3076C53.239 18.2026 53.0958 18.1436 52.9463 18.1436H45.7891ZM68.2607 18.1436H65.9258C65.6328 18.1436 65.3468 18.2309 65.1045 18.3945C64.8621 18.5582 64.6744 18.7907 64.5664 19.0615L62.001 25.6406L59.3203 19.0488C59.2118 18.7794 59.0238 18.5482 58.7812 18.3867C58.5387 18.2253 58.2528 18.1407 57.9609 18.1436H55.6777C55.5282 18.1436 55.3851 18.2025 55.2793 18.3076C55.1735 18.4128 55.1133 18.5554 55.1133 18.7041V29.3252C55.1133 29.4739 55.1735 29.6165 55.2793 29.7217C55.385 29.8267 55.5283 29.8857 55.6777 29.8857H57.3457C57.4952 29.8857 57.6384 29.8267 57.7441 29.7217C57.8499 29.6165 57.9101 29.4739 57.9102 29.3252V21.5605H58.0889L60.4883 27.1572C60.5796 27.3667 60.7298 27.5462 60.9209 27.6729C61.1119 27.7993 61.3359 27.8678 61.5654 27.8711H62.4756C62.7051 27.8678 62.9291 27.7993 63.1201 27.6729C63.3112 27.5462 63.4623 27.3667 63.5537 27.1572L65.9521 21.5605H66.1309V29.3252C66.1309 29.4739 66.1911 29.6165 66.2969 29.7217C66.4026 29.8267 66.5458 29.8857 66.6953 29.8857H68.3506C68.5001 29.8856 68.6433 29.8267 68.749 29.7217C68.8548 29.6165 68.915 29.4739 68.915 29.3252V18.7041C68.9161 18.6224 68.899 18.5413 68.8652 18.4668C68.8314 18.3922 68.7811 18.3259 68.7188 18.2725C68.6564 18.219 68.5831 18.1795 68.5039 18.1572C68.4248 18.135 68.3419 18.1306 68.2607 18.1436ZM93.002 18.1436H91.3213C91.1718 18.1437 91.0286 18.2025 90.9229 18.3076C90.817 18.4128 90.7578 18.5554 90.7578 18.7041V26.1631H90.6416L86.2686 18.9971C86.1087 18.7371 85.8842 18.5225 85.6172 18.373C85.3501 18.2235 85.0487 18.1446 84.7422 18.1436H82.9463C82.799 18.1469 82.6587 18.2069 82.5557 18.3115C82.4526 18.4163 82.3945 18.5575 82.3945 18.7041V29.3252C82.3946 29.4717 82.4527 29.612 82.5557 29.7168C82.6587 29.8216 82.7989 29.8824 82.9463 29.8857H84.627C84.7764 29.8856 84.9197 29.8267 85.0254 29.7217C85.1312 29.6165 85.1904 29.4739 85.1904 29.3252V21.6748H85.3066L89.6924 29.0186C89.8508 29.2837 90.0768 29.5032 90.3467 29.6553C90.6166 29.8073 90.9222 29.8869 91.2324 29.8857H93.002C93.1516 29.8857 93.2955 29.8269 93.4014 29.7217C93.507 29.6165 93.5663 29.4738 93.5664 29.3252V18.7041H93.6309C93.6314 18.6248 93.6143 18.5462 93.582 18.4736C93.5498 18.4012 93.5027 18.3362 93.4434 18.2832C93.384 18.2302 93.3134 18.1901 93.2373 18.166C93.1614 18.142 93.0811 18.1345 93.002 18.1436ZM95.8369 18.1436C95.6872 18.1436 95.5433 18.2024 95.4375 18.3076C95.3317 18.4128 95.2725 18.5554 95.2725 18.7041V29.3252C95.2725 29.4739 95.3317 29.6165 95.4375 29.7217C95.5433 29.8269 95.6873 29.8857 95.8369 29.8857H97.5166C97.6663 29.8857 97.8102 29.8269 97.916 29.7217C98.0217 29.6165 98.081 29.4738 98.0811 29.3252V21.6748H98.1963L102.57 29.0186C102.731 29.2819 102.956 29.5005 103.226 29.6523C103.495 29.8042 103.8 29.8844 104.109 29.8857H105.893C106.04 29.8823 106.18 29.8215 106.283 29.7168C106.386 29.612 106.443 29.4716 106.443 29.3252V18.7041H106.456C106.456 18.5554 106.397 18.4128 106.291 18.3076C106.185 18.2025 106.042 18.1437 105.893 18.1436H104.212C104.062 18.1436 103.918 18.2024 103.812 18.3076C103.707 18.4128 103.647 18.5555 103.647 18.7041V26.1631H103.532L99.1582 18.9971C98.9983 18.7372 98.7739 18.5225 98.5068 18.373C98.2397 18.2236 97.9384 18.1446 97.6318 18.1436H95.8369ZM27.0117 18.1436C26.7571 18.1539 26.5112 18.2389 26.3057 18.3887C26.1001 18.5385 25.9439 18.7461 25.8574 18.9844L22.5615 29.3252C22.5415 29.3877 22.5365 29.4538 22.5469 29.5186C22.5573 29.5833 22.5825 29.645 22.6211 29.6982C22.6597 29.7515 22.71 29.7958 22.7686 29.8262C22.8272 29.8565 22.8929 29.8722 22.959 29.873H24.3691C24.6603 29.8822 24.9466 29.7929 25.1797 29.6191C25.4128 29.4453 25.5796 29.1975 25.6523 28.917L26.0371 27.6416H30.0518L30.4365 28.917C30.5092 29.1975 30.6761 29.4453 30.9092 29.6191C31.1422 29.7927 31.4277 29.8822 31.7188 29.873H33.0781C33.1442 29.8722 33.2099 29.8565 33.2686 29.8262C33.3271 29.7958 33.3774 29.7515 33.416 29.6982C33.4546 29.645 33.4798 29.5834 33.4902 29.5186C33.5006 29.4539 33.4965 29.3876 33.4766 29.3252L30.1289 18.9844C30.0424 18.746 29.8862 18.5385 29.6807 18.3887C29.4752 18.2389 29.2292 18.154 28.9746 18.1436H27.0117ZM74.6611 18.1436C74.4036 18.1428 74.152 18.2236 73.9443 18.375C73.7367 18.5264 73.5826 18.74 73.5059 18.9844L70.1973 29.3252C70.177 29.3888 70.1715 29.4567 70.1826 29.5225C70.1937 29.5882 70.2207 29.6506 70.2607 29.7041C70.3008 29.7576 70.3538 29.8006 70.4141 29.8301C70.4742 29.8594 70.5404 29.8741 70.6074 29.873H71.9668C72.2555 29.8713 72.5367 29.7776 72.7676 29.6055C72.9984 29.4333 73.1676 29.1919 73.25 28.917L73.6221 27.6416H77.6494L78.0215 28.917C78.104 29.1919 78.273 29.4333 78.5039 29.6055C78.7348 29.7776 79.0151 29.8713 79.3037 29.873H80.6631C80.729 29.8722 80.794 29.8563 80.8525 29.8262C80.9112 29.7958 80.9623 29.7515 81.001 29.6982C81.0395 29.645 81.0648 29.5833 81.0752 29.5186C81.0856 29.4538 81.0805 29.3877 81.0605 29.3252L77.7646 18.9844C77.6782 18.746 77.5219 18.5385 77.3164 18.3887C77.1109 18.2389 76.865 18.1539 76.6104 18.1436H74.6611ZM29.2822 25.2578H26.6523L27.9355 20.7568H27.999L29.2822 25.2578ZM76.8672 25.2578H74.3018L75.584 20.7568L76.8672 25.2578ZM40.7393 20.4492C40.9374 20.4824 41.1253 20.5622 41.2871 20.6807C41.4487 20.7991 41.5803 20.9537 41.6709 21.1318C41.7615 21.3101 41.8086 21.5073 41.8086 21.707C41.8086 21.9068 41.7615 22.104 41.6709 22.2822C41.5803 22.4604 41.4488 22.615 41.2871 22.7334C41.1253 22.8518 40.9374 22.9307 40.7393 22.9639C40.5411 22.997 40.3375 22.9841 40.1455 22.9248H37.6699V20.4893H40.1455C40.3375 20.43 40.5411 20.416 40.7393 20.4492Z" fill="var(--fill-0, black)"/>
<path id="Subtract_2" d="M92.1299 36.8857C97.2089 36.8857 101.326 39.9341 101.326 43.6943C101.326 47.4543 97.2086 50.502 92.1299 50.502C87.0512 50.5019 82.9339 47.4543 82.9336 43.6943C82.9336 39.9341 87.0509 36.8858 92.1299 36.8857ZM91.0654 39.041C90.9386 39.0443 90.8181 39.0963 90.7295 39.1865C90.6408 39.277 90.5908 39.3991 90.5908 39.5254V42.2031H87.6406C87.5767 42.2032 87.5131 42.2149 87.4541 42.2393C87.395 42.2636 87.3411 42.2998 87.2959 42.3447C87.2508 42.3897 87.2149 42.4433 87.1904 42.502C87.166 42.5607 87.1533 42.624 87.1533 42.6875V44.7012C87.1533 44.8295 87.2047 44.9531 87.2959 45.0439C87.3872 45.1347 87.5115 45.1864 87.6406 45.1865H90.6426V47.8633C90.6426 47.9884 90.6923 48.1088 90.7812 48.1973C90.8702 48.2857 90.9913 48.335 91.1172 48.335H93.1436C93.2069 48.3366 93.2701 48.3256 93.3291 48.3027C93.388 48.2798 93.442 48.246 93.4873 48.2021C93.5327 48.1582 93.5691 48.105 93.5938 48.0469C93.6183 47.9889 93.6309 47.9262 93.6309 47.8633V45.1865H96.6318C96.6951 45.1865 96.7581 45.1738 96.8164 45.1494C96.8748 45.1249 96.9284 45.0891 96.9727 45.0439C97.0169 44.9988 97.0511 44.9445 97.0742 44.8857C97.0972 44.8271 97.1082 44.7641 97.1064 44.7012V42.6875C97.1082 42.6246 97.0972 42.5616 97.0742 42.5029C97.0512 42.4444 97.0167 42.3908 96.9727 42.3457C96.9284 42.3005 96.8748 42.2638 96.8164 42.2393C96.7581 42.2149 96.6951 42.2031 96.6318 42.2031H93.6309V39.5254C93.6309 39.397 93.5796 39.2735 93.4883 39.1826C93.3969 39.0918 93.2727 39.0411 93.1436 39.041H91.0654Z" fill="var(--fill-0, black)"/>
</g>
<defs>
<clipPath id="clip0_2049_42711">
<rect width="118" height="51" fill="white"/>
</clipPath>
</defs>
</svg>
