<svg preserveAspectRatio="xMidYMid meet" viewBox="0 0 218 73" fill="none" xmlns="http://www.w3.org/2000/svg">
<g id="logo">
<path id="Union" d="M187.692 16.3584C191.72 16.3584 195.025 19.6783 195.025 23.7246V49.7676C195.025 53.9176 191.617 57.1338 187.589 57.1338H32.3584C28.3305 57.1338 25.0255 53.8139 25.0254 49.7676V23.7246C25.0256 19.6783 28.3306 16.3584 32.3584 16.3584H187.692ZM32.3584 18.6406C32.0984 18.6406 31.8435 18.6597 31.5947 18.6953C31.8432 18.6598 32.0978 18.6416 32.3574 18.6416H45.3711V54.8516H187.589C190.481 54.8516 192.753 52.5688 192.753 49.7676V23.7246C192.753 20.9234 190.377 18.6406 187.589 18.6406H32.3584ZM83.792 28.498C89.5756 28.3944 91.125 31.8183 91.125 38.251C91.125 44.5799 89.2657 48.0038 83.792 48.0039C78.0083 48.1077 76.459 44.6837 76.459 38.251C76.459 31.922 78.3181 28.498 83.792 28.498ZM180.669 28.498C186.246 28.4982 187.485 32.2331 187.485 37.9395V38.9766H177.983V40.4297C177.983 42.6083 178.603 44.7868 180.358 44.7871H180.462C182.011 44.7871 182.631 43.5422 182.838 41.2598H187.176C186.969 45.6172 184.903 48.0039 180.462 48.0039C173.542 48.0038 173.232 42.7119 173.232 38.043C173.232 33.1666 174.162 28.6019 180.462 28.498H180.669ZM98.9736 30.6768H99.0771C99.6968 29.743 100.523 29.0164 101.452 28.7051C101.865 28.4976 102.486 28.498 103.002 28.498C106.926 28.4983 108.682 31.2997 108.682 38.251C108.682 45.2019 106.926 48.0027 103.002 48.0029C102.382 48.0029 101.969 47.8997 101.452 47.7959C100.419 47.4846 99.4895 46.7586 98.7666 45.5137H98.6641V47.4844H94.2227V22.8945H98.9736V30.6768ZM170.135 22.8945V47.4844H165.591V45.5137H165.487C164.764 46.7586 163.835 47.4847 162.802 47.7959C162.389 47.8996 161.872 48.0029 161.253 48.0029C157.432 48.0029 155.572 45.2022 155.572 38.251C155.572 31.2994 157.328 28.498 161.253 28.498C161.769 28.498 162.285 28.4976 162.802 28.7051C163.835 29.0163 164.557 29.743 165.28 30.6768H165.384V22.8945H170.135ZM136.673 28.3936C142.25 28.3937 143.489 32.1296 143.489 37.8359V38.873H133.987V40.3252C133.987 42.5039 134.607 44.6833 136.362 44.6836H136.466C138.015 44.6836 138.635 43.4379 138.842 41.1553H143.18C142.973 45.513 140.907 47.8994 136.466 47.8994C129.546 47.8993 129.236 42.6083 129.236 37.9395C129.236 33.063 130.166 28.4974 136.466 28.3936H136.673ZM68.9189 28.498C72.0174 28.498 73.5664 30.4694 73.5664 33.9971V47.4844H68.8154V34.6191C68.8154 33.063 68.2994 32.2326 66.957 32.2324C65.4078 32.2324 64.4775 33.2704 64.4775 35.4492V47.6924H59.7266V34.6191C59.7266 33.0629 59.2107 32.2325 57.8682 32.2324C56.319 32.2324 55.3896 33.2704 55.3896 35.4492V47.6924H50.6387V29.0166H54.9766V30.8838H55.0791C56.3184 29.2238 57.7645 28.4982 59.7266 28.498C61.8953 28.498 63.5479 29.5351 64.0645 31.4023H64.168C64.891 29.4312 66.6469 28.4981 68.9189 28.498ZM117.048 47.5889H112.297V29.0166H117.048V47.5889ZM126.138 47.5889H121.387V22.8945H126.138V47.5889ZM152.061 47.5889H146.793V42.1934H152.061V47.5889ZM83.792 31.7139C81.4165 31.7139 81.21 34.4121 81.21 38.251C81.21 42.0898 81.4166 44.7871 83.792 44.7871C85.7542 44.787 86.374 42.9197 86.374 38.251C86.374 33.5822 85.7542 31.714 83.792 31.7139ZM101.452 32.1289C99.3867 32.129 98.9736 34.2047 98.9736 38.251C98.9737 42.297 99.3868 44.372 101.452 44.3721C103.518 44.3721 103.931 42.2971 103.931 38.251C103.931 34.2046 103.518 32.1289 101.452 32.1289ZM162.802 32.1289C160.736 32.129 160.323 34.2046 160.323 38.251C160.323 42.297 160.736 44.372 162.802 44.3721C164.867 44.3721 165.28 42.2971 165.28 38.251C165.28 34.2046 164.867 32.1289 162.802 32.1289ZM180.462 31.7139C178.5 31.714 177.983 33.6854 177.983 35.4492V36.1758H182.838C182.838 33.3744 182.424 31.7139 180.462 31.7139ZM136.466 31.6104C134.504 31.6105 133.987 33.5819 133.987 35.3457V36.0713H138.842C138.842 33.2702 138.428 31.6104 136.466 31.6104ZM117.048 26.7344H112.297V22.584H117.048V26.7344ZM28.2744 20.6006C28.231 20.6557 28.1886 20.7116 28.1475 20.7686C28.1886 20.7116 28.231 20.6557 28.2744 20.6006ZM31.5234 18.7061C31.3802 18.7285 31.2393 18.7574 31.1006 18.791C31.2393 18.7574 31.3802 18.7285 31.5234 18.7061Z" fill="var(--fill-0, black)"/>
</g>
</svg>
