<svg preserveAspectRatio="xMidYMid meet" viewBox="0 0 170 42.2941" fill="none" xmlns="http://www.w3.org/2000/svg">
<g id="Group 2608864">
<g id="Union">
<path d="M14.7736 13.5836L15.4243 9.76132H32.6497L31.9661 13.5836H25.6493L22.3928 32.4349H17.8017L21.0581 13.5836H14.7736Z" fill="var(--fill-0, black)"/>
<path fill-rule="evenodd" clip-rule="evenodd" d="M85.459 32.4349L89.399 9.76132H97.5396C101.805 9.76132 104.442 11.5429 104.442 14.6845C104.442 17.1787 102.75 19.5112 99.9488 20.5155C102.391 21.4872 103.336 22.9445 103.336 25.1794C103.336 29.9733 99.0374 32.4349 93.2738 32.4349H85.459ZM97.1816 13.4865H93.3388L92.4268 18.7016H95.9114C98.1584 18.7016 99.7219 17.3091 99.7219 15.6244C99.7219 14.2965 98.7454 13.4865 97.1816 13.4865ZM91.7772 22.4277H95.3265C97.4109 22.4277 98.6156 23.2047 98.6156 25.051C98.6156 27.2212 96.9223 28.7113 94.219 28.7113H90.7026L91.7772 22.4277Z" fill="var(--fill-0, black)"/>
<path d="M141.658 9.76132L137.717 32.4349H142.048L142.797 28.1267L145.76 25.3412L148.04 32.4349H152.469L149.017 22.1988L155.042 16.0455H150.221L143.709 22.8799L145.988 9.76132H141.658Z" fill="var(--fill-0, black)"/>
<path fill-rule="evenodd" clip-rule="evenodd" d="M35.7772 15.6254C31.4463 15.6254 28.5489 18.6378 27.6694 23.3991L27.6043 23.7559C26.5625 29.424 29.0042 32.6953 34.1489 32.6953C37.2423 32.6953 39.2938 31.5289 40.8568 29.3912L38.3819 27.0916C37.1772 28.452 36.1357 29.1646 34.4747 29.1646C32.1628 29.1646 30.9902 27.7391 31.4139 25.1478H41.4756L41.8009 23.3021C42.7453 17.8925 39.554 15.6254 35.7772 15.6254ZM38.1503 21.6135C38.3132 19.8644 37.3362 18.8928 35.5127 18.8928C33.6243 18.8928 32.3546 19.962 31.8986 22.294H38.0857L38.1503 21.6135Z" fill="var(--fill-0, black)"/>
<path fill-rule="evenodd" clip-rule="evenodd" d="M44.8277 18.1194C45.7068 17.1796 47.9211 15.6253 51.3724 15.6253C55.3777 15.6253 58.0151 17.6985 57.3961 21.3261L55.475 32.4359H51.4704L51.6654 31.3344C50.1024 32.2734 48.6698 32.6952 47.4648 32.6952C44.8925 32.6952 42.8736 30.7844 42.8736 27.9016C42.8736 23.7557 47.0088 21.8762 52.0558 21.8762H53.1304L53.2607 21.1321C53.5213 19.6746 52.4793 18.9295 50.7207 18.9295C49.0928 18.9295 48.0185 19.5771 47.1717 20.5165L44.8277 18.1194ZM52.64 24.6916H51.5649C48.9928 24.6916 47.0067 25.5344 47.0067 27.4128C47.0067 28.6437 47.853 29.1943 48.8298 29.1943C49.872 29.1943 51.3044 28.5461 52.0535 27.9958L52.64 24.6916Z" fill="var(--fill-0, black)"/>
<path d="M67.8135 15.6273C64.6556 15.6922 61.2689 17.0845 60.748 20.0968L58.599 32.4379H62.9294L65.0462 20.4209C65.2091 19.5464 66.5765 19.0932 67.8135 19.1255C69.1811 19.1581 70.1585 19.8054 69.9303 21.3275L67.9762 32.4379H72.3072L74.2936 21.0693C74.5542 19.709 75.498 19.0932 77.1913 19.1255C78.5913 19.1581 79.5687 19.8381 79.3081 21.3929L77.3546 32.4379H81.685L83.6714 21.0693C84.3548 17.0849 80.6426 15.5628 77.1913 15.6273C75.5632 15.6596 73.9033 16.0486 72.5679 16.8259C71.298 15.951 69.539 15.5951 67.8135 15.6273Z" fill="var(--fill-0, black)"/>
<path fill-rule="evenodd" clip-rule="evenodd" d="M106.785 18.1195C107.664 17.1797 109.879 15.6254 113.331 15.6254C117.335 15.6254 119.973 17.6986 119.354 21.3262L117.433 32.436H113.428L113.622 31.3345C112.06 32.2735 110.627 32.6953 109.423 32.6953C106.851 32.6953 104.832 30.7845 104.832 27.9017C104.832 23.7558 108.967 21.8763 114.013 21.8763H115.088L115.219 21.1322C115.479 19.6747 114.438 18.9296 112.679 18.9296C111.051 18.9296 109.976 19.5771 109.13 20.5166L106.785 18.1195ZM113.527 24.6898H114.601L114.015 27.994C113.266 28.5444 111.834 29.1925 110.792 29.1925C109.815 29.1925 108.968 28.642 108.968 27.411C108.968 25.5326 110.954 24.6898 113.527 24.6898Z" fill="var(--fill-0, black)"/>
<path d="M129.936 15.6273C126.777 15.6922 123.228 17.0845 122.708 20.0968L120.559 32.4379H124.889L127.006 20.4209C127.168 19.5464 128.698 19.0931 129.936 19.1254C131.336 19.158 132.476 19.8381 132.215 21.3928L130.262 32.4379H134.593L136.578 21.0693C137.262 17.0849 133.387 15.5628 129.936 15.6273Z" fill="var(--fill-0, black)"/>
<path fill-rule="evenodd" clip-rule="evenodd" d="M12.6427 0C9.0592 0 5.75085 2.82181 5.13679 6.35537L0.0993617 35.3687C-0.216755 37.188 0.230316 38.934 1.31353 40.2365C2.398 41.5404 4.03262 42.2941 5.87761 42.2941H157.357C160.94 42.2941 164.249 39.4728 164.863 35.9394L169.901 6.92599C170.217 5.10647 169.77 3.36043 168.686 2.05782C167.602 0.753754 165.967 0 164.121 0H12.6427ZM8.42097 6.92583C8.76176 4.96556 10.7039 3.33335 12.6427 3.33335H164.121C165.038 3.33335 165.711 3.69314 166.123 4.18936C166.537 4.68702 166.778 5.42801 166.616 6.35545L161.578 35.3688C161.238 37.3285 159.296 38.9607 157.357 38.9607H5.87761C4.96109 38.9607 4.28895 38.6011 3.87635 38.105C3.46256 37.6075 3.22233 36.8667 3.38348 35.9395L8.42097 6.92583Z" fill="var(--fill-0, black)"/>
</g>
</g>
</svg>
