<svg preserveAspectRatio="xMidYMid meet" viewBox="0 0 103.824 23.8185" fill="none" xmlns="http://www.w3.org/2000/svg">
<g id="voith-logo-white 2" clip-path="url(#clip0_2049_41514)">
<path id="Vector" d="M16.9378 -0.000244141L12.2684 12.6907L7.69067 -0.000244141H0L9.70489 22.6227H14.9236L24.6285 -0.000244141H16.9378ZM55.8489 -0.000244141H52.3698V22.6227H59.328V-0.000244141H55.8489ZM63.5396 -0.000244141V6.71307H68.3005V22.6227H75.1671V6.71307H79.928V-0.000244141H63.5396ZM96.8658 -0.000244141V7.72466H91.0978V-0.000244141H84.1396V22.6227H91.0978V14.438H96.8658V22.6227H103.824V-0.000244141H96.8658Z" fill="var(--fill-0, black)"/>
<g id="Clip path group">
<mask id="mask0_2049_41514" style="mask-type:luminance" maskUnits="userSpaceOnUse" x="0" y="-1" width="104" height="25">
<g id="SVGID_2_">
<path id="Vector_2" d="M0.00195312 -0.0012207H103.826V23.8172H0.00195312V-0.0012207Z" fill="var(--fill-0, white)"/>
</g>
</mask>
<g mask="url(#mask0_2049_41514)">
<path id="Vector_3" d="M41.66 12.046C41.66 14.9888 39.2795 17.4718 36.3497 17.4718C33.42 17.4718 30.948 15.0808 30.948 12.046C30.948 9.10318 33.3284 6.71214 36.3497 6.71214C39.2795 6.71214 41.66 9.10318 41.66 12.046ZM47.9773 12.046C47.9773 5.51662 42.7586 0.274719 36.2582 0.274719C29.7577 0.274719 24.5391 5.51662 24.5391 12.046C24.5391 18.5754 29.8493 23.8173 36.2582 23.8173C42.7586 23.8173 47.9773 18.5754 47.9773 12.046Z" fill="var(--fill-0, black)"/>
</g>
</g>
</g>
<defs>
<clipPath id="clip0_2049_41514">
<rect width="103.824" height="23.8185" fill="white"/>
</clipPath>
</defs>
</svg>
