<svg preserveAspectRatio="xMidYMid meet" viewBox="0 0 220 12" fill="none" xmlns="http://www.w3.org/2000/svg">
<g id="Frame" clip-path="url(#clip0_2049_40321)">
<path id="Vector" d="M213.179 6V2.2H216.623C217.351 2.2 217.682 2.53333 217.682 3.26667V4.93333C217.682 5.66667 217.351 6 216.623 6H213.179ZM210.861 12H213.179V8.06667H216.954C218.874 8.06667 220 7 220 5V3C220 1.06667 218.94 -0.0666667 216.954 -0.0666667H210.861V12ZM199.536 12H202.914C204.834 12 205.96 10.9333 205.96 8.93333V0.0666667H203.642V8.8C203.642 9.53333 203.311 9.86667 202.583 9.86667H199.934C199.205 9.86667 198.874 9.53333 198.874 8.8V0.0666667H196.556V8.93333C196.49 10.9333 197.55 12 199.536 12ZM185.43 9.93333C184.702 9.93333 184.371 9.6 184.371 8.86667V3.26667C184.371 2.53333 184.702 2.2 185.43 2.2H188.278C189.007 2.2 189.338 2.53333 189.338 3.26667V8.8C189.338 9.53333 189.007 9.86667 188.278 9.86667H185.43V9.93333ZM185.099 12H188.609C190.53 12 191.656 10.9333 191.656 8.93333V3.13333C191.656 1.2 190.596 0.0666667 188.609 0.0666667H185.099C183.179 0.0666667 182.053 1.13333 182.053 3.13333V9C182.053 10.9333 183.113 12 185.099 12ZM170.265 5.66667V2.2H173.907C174.636 2.2 174.967 2.53333 174.967 3.26667V4.6C174.967 5.33333 174.636 5.66667 173.907 5.66667H170.265ZM168.013 12H170.331V7.8H172.185L175.099 12H177.748L174.702 7.73333C176.358 7.6 177.219 6.53333 177.219 4.66667V3.06667C177.219 1.13333 176.159 -6.45717e-09 174.172 -6.45717e-09H167.947V12H168.013ZM156.556 12H160.066C161.987 12 163.113 10.9333 163.113 8.93333V5.6H158.808V7.66667H160.861V8.73333C160.861 9.46667 160.53 9.8 159.801 9.8H156.954C156.225 9.8 155.894 9.46667 155.894 8.73333V3.26667C155.894 2.53333 156.225 2.2 156.954 2.2H159.801C160.53 2.2 160.861 2.53333 160.861 3.26667V3.46667H163.179V3.06667C163.179 1.13333 162.119 -6.45717e-09 160.132 -6.45717e-09H156.623C154.702 -6.45717e-09 153.576 1.06667 153.576 3.06667V8.93333C153.576 10.9333 154.57 12 156.556 12ZM130.265 12H132.583V3.93333L137.748 12H140.199V0.0666667H137.881V8.13333L132.715 0.0666667H130.265V12ZM117.02 12H125.364V9.93333H119.338V7.06667H124.636V4.93333H119.338V2.26667H125.364V0.133333H117.02V12ZM105.497 12H109.007C110.927 12 112.053 10.9333 112.053 8.93333V5.6H107.748V7.66667H109.801V8.73333C109.801 9.46667 109.47 9.8 108.742 9.8H105.894C105.166 9.8 104.834 9.46667 104.834 8.73333V3.26667C104.834 2.53333 105.166 2.2 105.894 2.2H108.742C109.47 2.2 109.801 2.53333 109.801 3.26667V3.46667H112.119V3.06667C112.119 1.13333 111.06 -6.45717e-09 109.073 -6.45717e-09H105.563C103.642 -6.45717e-09 102.517 1.06667 102.517 3.06667V8.93333C102.517 10.9333 103.576 12 105.497 12ZM91.1258 7.53333L92.8477 2.33333L94.5695 7.53333H91.1258ZM87.2185 12H89.7351L90.5298 9.6H95.3642L96.1589 12H98.6755L94.6358 0.0666667H91.3245L87.2185 12ZM57.4834 12H61.2583C62.9801 12 63.9073 11.0667 63.9073 9.33333V7.8C63.9073 6.2 63.1126 5.46667 61.5232 5.2L58.1457 4.6C57.4834 4.53333 57.2848 4.26667 57.2848 3.73333V3.06667C57.2848 2.46667 57.5497 2.2 58.1457 2.2H60.7947C61.3907 2.2 61.6556 2.46667 61.6556 3.06667V3.33333H63.9735V2.66667C63.9735 0.933333 63.0464 -6.45717e-09 61.3245 -6.45717e-09H57.7483C56.0265 -6.45717e-09 55.0993 0.933333 55.0993 2.66667V4.13333C55.0993 5.73333 55.894 6.53333 57.4834 6.73333L60.8609 7.33333C61.5232 7.4 61.7881 7.66667 61.7881 8.2V9.06667C61.7881 9.66667 61.5232 9.93333 60.9272 9.93333H58.1457C57.5497 9.93333 57.2848 9.66667 57.2848 9.06667V8.66667H54.8344V9.4C54.8344 11.0667 55.7616 12 57.4834 12ZM41.1258 12H43.3775V7H44.5695L48.1457 12H50.8609L46.4238 6L50.7947 0.0666667H48.0795L44.5695 5H43.3775V0.0666667H41.0596V12H41.1258ZM29.4702 12H36.8212V9.93333H31.7219V0.0666667H29.404V12H29.4702ZM18.3444 9.93333C17.6159 9.93333 17.2848 9.6 17.2848 8.86667V3.26667C17.2848 2.53333 17.6159 2.2 18.3444 2.2H21.1921C21.9205 2.2 22.2517 2.53333 22.2517 3.26667V8.8C22.2517 9.53333 21.9205 9.86667 21.1921 9.86667H18.3444V9.93333ZM17.947 12H21.457C23.3775 12 24.5033 10.9333 24.5033 8.93333V3.13333C24.5033 1.2 23.4437 0.0666667 21.457 0.0666667H17.947C16.0265 0.0666667 14.9007 1.13333 14.9007 3.13333V9C14.9669 10.9333 16.0265 12 17.947 12ZM3.97351 12H7.28477L11.3245 0.0666667H8.80795L5.62914 9.53333L2.51656 0.0666667H0L3.97351 12ZM70.9934 12H73.8411L76.1589 3.2L78.4768 12H81.3245L84.4371 0.0666667H81.9868L79.8013 8.93333L77.5497 0.0666667H74.702L72.4503 8.93333L70.2649 0.0666667H67.8146L70.9934 12Z" fill="var(--fill-0, black)"/>
</g>
<defs>
<clipPath id="clip0_2049_40321">
<rect width="220" height="12" fill="white"/>
</clipPath>
</defs>
</svg>
