<svg preserveAspectRatio="none" width="100%" height="100%" overflow="visible" style="display: block;" viewBox="0 0 128.123 128.02" fill="none" xmlns="http://www.w3.org/2000/svg">
<path id="Union" d="M62.2842 29.9307C58.0442 30.1294 54.0028 31.0423 50.2412 32.6543C45.9717 34.4872 42.1807 37.0125 38.9639 40.1777C35.7396 43.3431 33.1699 47.1486 31.3369 51.4844C29.4966 55.8201 28.5694 60.4946 28.5693 65.375C28.5693 70.2554 29.5041 74.93 31.3369 79.2656C33.1699 83.6014 35.7396 87.4079 38.9639 90.5732C42.1807 93.7384 45.9718 96.2711 50.2412 98.0967C54.5252 99.9368 59.17 100.864 64.0576 100.864C69.0485 100.864 73.7529 99.9296 78.0371 98.0967C82.314 96.2637 86.0827 93.7308 89.248 90.5654C92.4207 87.4001 94.9532 83.6018 96.7861 79.2734C97.007 78.7581 97.1764 78.2573 97.3457 77.7715C97.3972 77.617 97.4489 77.4621 97.5078 77.3076L98.3398 74.9453H74.5107V52.832H128.123V65.4561C128.116 74.0466 126.43 82.2103 123.11 89.7188C119.776 97.2714 115.145 103.955 109.345 109.602C103.544 115.248 96.6612 119.783 88.9023 123.073C81.1511 126.356 72.7962 128.019 64.0732 128.02C55.4458 128.02 47.1489 126.356 39.3975 123.073C31.6314 119.783 24.7489 115.255 18.9482 109.602C13.1476 103.963 8.48729 97.2646 5.09375 89.7119C1.71491 82.1813 0 74.0024 0 65.3896C5.52252e-05 56.7771 1.715 48.5915 5.09375 41.0684C8.48731 33.5157 13.1475 26.8238 18.9482 21.1777C24.7562 15.5318 31.6315 10.9975 39.3975 7.70703C46.6072 4.65394 54.3023 2.99732 62.2842 2.78223V29.9307ZM111.414 0C118.981 0 125.136 6.15427 125.136 13.7217C125.136 29.1803 102.102 42.4454 101.123 43.0049C100.976 43.0931 100.806 43.1299 100.645 43.1299C100.483 43.1298 100.313 43.0931 100.166 43.0049C99.1838 42.4436 76.1541 29.1791 76.1465 13.7217C76.1465 6.15435 82.293 0.000133403 89.8604 0C94.1152 0 98.0392 1.94328 100.638 5.25586C103.236 1.94348 107.159 0.000138626 111.414 0Z" fill="var(--fill-0, white)"/>
</svg>
