<svg preserveAspectRatio="none" width="100%" height="100%" overflow="visible" style="display: block;" viewBox="0 0 744 103" fill="none" xmlns="http://www.w3.org/2000/svg">
<g id="Union">
<path d="M692.75 58.3921V101.515H672.922V24.1882H689.777L724.273 67.4122V24.1882H744V101.515H727.246L692.75 58.3921Z" fill="var(--fill-0, white)"/>
<path d="M657.715 101.515H637.887V24.1882H657.715V101.515Z" fill="var(--fill-0, white)"/>
<path d="M626.433 101.515H569.634V24.1882H589.361V82.3785H626.433V101.515Z" fill="var(--fill-0, white)"/>
<path fill-rule="evenodd" clip-rule="evenodd" d="M489.907 101.515V24.1815H527.665C532.622 24.1815 536.92 24.9281 540.552 26.4147C544.184 27.9079 547.19 29.9393 549.571 32.5155C551.952 35.0917 553.721 38.0985 554.878 41.5357C556.034 44.9729 556.613 48.6051 556.613 52.4392C556.613 55.1499 556.297 57.7934 555.671 60.3696C555.046 62.9526 554.104 65.3472 552.846 67.5602C551.595 69.7732 550.008 71.7911 548.091 73.6072C546.174 75.4301 543.928 76.9301 541.352 78.1207L558.106 101.515H534.411L519.742 80.7978H509.633V101.515H489.907ZM535.01 45.2083C533.355 43.224 530.55 42.2352 526.582 42.2352H509.633V62.8517H526.582C528.566 62.8517 530.255 62.5759 531.64 62.0109C533.026 61.4459 534.149 60.706 535.01 59.7777C535.871 58.8562 536.496 57.7665 536.893 56.5087C537.29 55.2508 537.485 53.9661 537.485 52.641C537.485 49.6679 536.658 47.1926 535.01 45.2083Z" fill="var(--fill-0, white)"/>
<path d="M476.502 101.515H417.12V24.1882H476.502V43.4191H436.948V54.5244H469.46V72.4638H436.948V82.3785H476.502V101.515Z" fill="var(--fill-0, white)"/>
<path fill-rule="evenodd" clip-rule="evenodd" d="M380.895 101.515H339.054V24.1815H377.519C381.682 24.1815 385.334 24.7129 388.475 25.7689C391.609 26.825 394.226 28.3115 396.304 30.2285C398.382 32.1523 399.956 34.4124 401.012 37.0222C402.068 39.6321 402.599 42.4572 402.599 45.4975C402.599 49.4661 401.758 52.7688 400.07 55.4123C398.389 58.0558 396.089 60.1679 393.183 61.7553C397.145 63.2755 400.286 65.5086 402.599 68.4481C404.913 71.3875 406.07 75.1409 406.07 79.7014C406.07 82.8695 405.491 85.7955 404.334 88.4726C403.178 91.1498 401.51 93.4637 399.33 95.4143C397.151 97.365 394.508 98.8717 391.401 99.9277C388.293 100.984 384.796 101.515 380.895 101.515ZM381.043 43.9235C380.021 42.8002 378.447 42.2352 376.335 42.2352H358.888V54.5311H375.245C377.949 54.5311 379.853 53.9661 380.942 52.8428C382.032 51.7195 382.577 50.2329 382.577 48.3832C382.577 46.5334 382.065 45.0469 381.043 43.9235ZM384.419 71.8247C383.323 70.6005 381.426 69.9884 378.716 69.9884H358.888V83.5691H378.716C381.426 83.5691 383.33 82.9301 384.419 81.6386C385.509 80.3539 386.054 78.6857 386.054 76.6341C386.054 74.6498 385.509 73.049 384.419 71.8247Z" fill="var(--fill-0, white)"/>
<path d="M271.641 58.3921V101.515H251.814V24.1882H268.669L303.165 67.4122V24.1882H322.892V101.515H306.138L271.641 58.3921Z" fill="var(--fill-0, white)"/>
<path d="M216.059 19.2308C213.349 19.2308 211.069 18.2891 209.219 16.4057C207.37 14.5223 206.442 12.2286 206.442 9.51789C206.442 8.26005 206.69 7.05602 207.188 5.89907C207.686 4.74213 208.358 3.71971 209.219 2.8251C210.08 1.93048 211.103 1.23766 212.293 0.739907C213.484 0.248878 214.735 0 216.059 0C217.384 0 218.622 0.242151 219.779 0.739907C220.936 1.23766 221.945 1.93048 222.805 2.8251C223.66 3.71971 224.339 4.74213 224.837 5.89907C225.328 7.05602 225.576 8.26005 225.576 9.51789C225.576 10.843 225.334 12.0941 224.837 13.2847C224.339 14.4753 223.666 15.5111 222.805 16.4057C221.945 17.2936 220.936 17.9865 219.779 18.4842C218.622 18.982 217.378 19.2308 216.059 19.2308Z" fill="var(--fill-0, white)"/>
<path d="M191.08 19.2308C188.369 19.2308 186.089 18.2891 184.24 16.4057C182.383 14.5223 181.462 12.2286 181.469 9.51789C181.469 8.26005 181.711 7.05602 182.209 5.89907C182.7 4.74213 183.379 3.71971 184.24 2.8251C185.101 1.93048 186.123 1.23766 187.313 0.739907C188.504 0.248878 189.755 0 191.08 0C192.398 0 193.636 0.248878 194.799 0.739907C195.956 1.23766 196.965 1.93048 197.826 2.8251C198.687 3.71971 199.359 4.74213 199.857 5.89907C200.355 7.05602 200.604 8.26005 200.604 9.51789C200.604 10.843 200.355 12.0941 199.857 13.2847C199.359 14.4753 198.687 15.5111 197.826 16.4057C196.965 17.2936 195.956 17.9865 194.799 18.4842C193.642 18.982 192.398 19.2308 191.08 19.2308Z" fill="var(--fill-0, white)"/>
<path d="M219.328 66.5243V24.1882H239.048V67.7082C239.048 72.6656 238.275 77.2866 236.721 81.5848C235.167 85.8762 232.887 89.6094 229.881 92.7843C226.875 95.9592 223.155 98.4547 218.73 100.271C214.297 102.087 209.213 102.995 203.462 102.995C197.651 102.995 192.526 102.087 188.1 100.271C183.668 98.4547 179.969 95.9592 176.996 92.7843C174.023 89.6161 171.777 85.883 170.257 81.5848C168.737 77.2933 167.977 72.6656 167.977 67.7082V24.1882H187.804V66.5243C187.804 72.1409 189.129 76.4391 191.773 79.4122C194.416 82.3852 198.317 83.8718 203.469 83.8718C208.688 83.8718 212.636 82.3852 215.313 79.4122C217.99 76.4391 219.328 72.1409 219.328 66.5243Z" fill="var(--fill-0, white)"/>
<path fill-rule="evenodd" clip-rule="evenodd" d="M91.2962 101.515V24.1815H129.061C134.018 24.1815 138.309 24.9281 141.948 26.4147C145.58 27.9079 148.586 29.9393 150.967 32.5155C153.348 35.0917 155.117 38.0985 156.274 41.5357C157.431 44.9729 158.009 48.6051 158.009 52.4392C158.009 55.1499 157.693 57.7934 157.068 60.3696C156.442 62.9526 155.494 65.3472 154.243 67.5602C152.985 69.7732 151.398 71.7911 149.481 73.6072C147.564 75.4301 145.318 76.9301 142.742 78.1207L159.496 101.515H135.801L121.132 80.7978H111.023V101.515H91.2962ZM136.399 45.2083C134.745 43.224 131.94 42.2352 127.972 42.2352H111.023V62.8517H127.972C129.956 62.8517 131.644 62.5759 133.03 62.0109C134.415 61.4459 135.538 60.706 136.399 59.7777C137.253 58.8562 137.886 57.7665 138.283 56.5087C138.679 55.2508 138.874 53.9661 138.874 52.641C138.874 49.6679 138.054 47.1926 136.399 45.2083Z" fill="var(--fill-0, white)"/>
<path d="M41.0407 22.7C44.0741 22.7 46.9998 23.0296 49.8515 23.6484V43.7402C49.7992 43.714 49.7474 43.6873 49.6956 43.6604C49.5742 43.5976 49.4521 43.5344 49.3202 43.4779C46.7711 42.3882 44.0135 41.8434 41.0407 41.8434C38.1285 41.8434 35.4045 42.3882 32.8622 43.4779C30.3198 44.5676 28.0869 46.0541 26.17 47.9375C24.2465 49.8209 22.7466 52.0541 21.657 54.6303C20.5675 57.2065 20.0227 59.9509 20.0227 62.8567C20.0227 65.7625 20.5675 68.5069 21.657 71.0831C22.7533 73.6593 24.2532 75.8925 26.17 77.7759C28.0869 79.6593 30.3198 81.1458 32.8622 82.2355C35.4045 83.3252 38.1285 83.87 41.0407 83.87C44.0203 83.87 46.7778 83.3252 49.3202 82.2355C51.8693 81.1458 54.082 79.6593 55.9653 77.7759C57.8485 75.8925 59.3349 73.6593 60.4244 71.0831C60.5604 70.7602 60.6725 70.4325 60.7849 70.104C60.8059 70.0425 60.827 69.981 60.8482 69.9194H49.9457V54.7043H82.0815V62.8903C82.0748 68.4262 80.9986 73.619 78.8598 78.462C76.7076 83.3185 73.7684 87.5696 70.0356 91.2019C66.3028 94.8341 61.9445 97.713 56.9539 99.8251C51.9634 101.944 46.6568 103 41.0407 103C35.4852 103 30.2189 101.937 25.2284 99.8251C20.2379 97.713 15.8729 94.8341 12.14 91.2019C8.40723 87.5696 5.44789 83.3185 3.26873 78.462C1.08958 73.6055 0 68.3993 0 62.85C0 57.3007 1.08958 52.0944 3.26873 47.238C5.45461 42.3815 8.40723 38.1371 12.14 34.4981C15.8796 30.8658 20.2379 27.9937 25.2284 25.8748C30.2189 23.756 35.492 22.7 41.0407 22.7Z" fill="var(--fill-0, white)"/>
</g>
</svg>
